<svg width="828" height="450" viewBox="0 0 828 450" fill="none" xmlns="http://www.w3.org/2000/svg">
<g clip-path="url(#clip0_833_4021)">
<path d="M416.428 450.001C640.823 450.001 822.732 437.958 822.732 423.103C822.732 408.247 640.823 396.205 416.428 396.205C192.033 396.205 10.125 408.247 10.125 423.103C10.125 437.958 192.033 450.001 416.428 450.001Z" fill="#F2F2F2"/>
<path d="M400.854 128.637C334.656 128.637 287.127 171.108 287.127 270.206C287.127 382.518 334.656 412.247 400.854 412.247C467.052 412.247 517.413 379.686 517.413 270.206C517.413 153.176 467.052 128.637 400.854 128.637ZM401.289 374.968C355.439 374.968 331.485 348.068 331.485 270.279C331.485 201.641 356.42 165.445 402.27 165.445C448.12 165.445 473.054 189.221 473.054 270.279C473.054 346.107 447.139 374.968 401.289 374.968Z" fill="#2F2E41"/>
<path d="M247.486 333.913H220.116V253.315C220.116 249.034 218.416 244.928 215.388 241.901C212.361 238.874 208.256 237.174 203.975 237.174H197.562C195.442 237.174 193.343 237.591 191.385 238.402C189.426 239.214 187.647 240.403 186.148 241.901C184.649 243.4 183.46 245.18 182.649 247.138C181.838 249.096 181.421 251.195 181.421 253.315V333.913H104.219C102.631 333.913 101.07 333.502 99.6868 332.721C98.3039 331.94 97.1465 330.815 96.3267 329.454C95.507 328.094 95.0527 326.545 95.008 324.957C94.9633 323.37 95.3297 321.798 96.0717 320.393L177.781 165.744C178.8 163.816 179.417 161.701 179.596 159.528C179.775 157.354 179.512 155.167 178.822 153.099C178.132 151.03 177.031 149.122 175.583 147.491C174.136 145.86 172.374 144.539 170.402 143.608L165.578 141.33C161.833 139.561 157.551 139.3 153.618 140.601C149.686 141.901 146.404 144.663 144.451 148.316L44.7957 334.74C43.0988 337.915 42.2109 341.459 42.2109 345.058C42.2109 347.933 42.7771 350.779 43.877 353.434C44.9769 356.09 46.5891 358.502 48.6215 360.535C50.6539 362.567 53.0667 364.179 55.7222 365.279C58.3777 366.379 61.2238 366.945 64.098 366.945H181.421V417.91C181.421 420.451 181.921 422.967 182.893 425.314C183.866 427.662 185.291 429.795 187.087 431.591C188.884 433.388 191.017 434.813 193.364 435.785C195.712 436.758 198.228 437.258 200.768 437.258H200.768C203.309 437.258 205.825 436.758 208.172 435.785C210.52 434.813 212.653 433.388 214.449 431.591C216.246 429.795 217.671 427.662 218.643 425.314C219.616 422.967 220.116 420.451 220.116 417.91V366.945H247.486C251.867 366.945 256.068 365.205 259.165 362.108C262.262 359.01 264.003 354.809 264.003 350.429C264.003 346.049 262.262 341.848 259.165 338.75C256.068 335.653 251.867 333.913 247.486 333.913Z" fill="#04536C"/>
<path d="M754.304 333.913H726.934V253.315C726.934 249.034 725.234 244.928 722.207 241.901C719.18 238.874 715.074 237.174 710.793 237.174H704.38C702.26 237.174 700.161 237.591 698.203 238.402C696.245 239.214 694.465 240.403 692.966 241.901C691.468 243.4 690.279 245.18 689.468 247.138C688.656 249.096 688.239 251.195 688.239 253.315V333.913H611.037C609.449 333.913 607.888 333.502 606.505 332.721C605.122 331.94 603.965 330.815 603.145 329.454C602.325 328.094 601.871 326.545 601.826 324.957C601.782 323.37 602.148 321.798 602.89 320.393L684.599 165.744C685.618 163.816 686.235 161.701 686.414 159.528C686.593 157.354 686.33 155.167 685.64 153.099C684.951 151.03 683.849 149.122 682.402 147.491C680.955 145.86 679.192 144.539 677.22 143.608L672.396 141.33C668.651 139.561 664.369 139.3 660.437 140.601C656.504 141.901 653.222 144.663 651.269 148.316L551.614 334.74C549.917 337.915 549.029 341.459 549.029 345.058C549.029 350.863 551.335 356.43 555.44 360.535C559.545 364.639 565.112 366.945 570.916 366.945H688.239V417.91C688.239 423.042 690.277 427.963 693.906 431.591C697.534 435.22 702.455 437.258 707.587 437.258C712.718 437.258 717.639 435.22 721.268 431.591C724.896 427.963 726.934 423.042 726.934 417.91V366.945H754.304C758.685 366.945 762.886 365.205 765.983 362.108C769.081 359.01 770.821 354.809 770.821 350.429C770.821 346.049 769.081 341.848 765.983 338.75C762.886 335.653 758.685 333.913 754.304 333.913Z" fill="#04536C"/>
<path d="M255.039 324.476H227.669V243.878C227.669 241.758 227.251 239.66 226.44 237.701C225.629 235.743 224.44 233.963 222.941 232.465C221.442 230.966 219.663 229.777 217.705 228.966C215.746 228.155 213.647 227.737 211.528 227.737H205.114C200.833 227.737 196.728 229.438 193.701 232.465C190.674 235.492 188.973 239.597 188.973 243.878V324.476H111.772C110.184 324.476 108.622 324.065 107.239 323.284C105.857 322.503 104.699 321.378 103.879 320.017C103.06 318.657 102.605 317.108 102.561 315.521C102.516 313.933 102.882 312.361 103.624 310.957L185.334 156.307C186.352 154.379 186.97 152.264 187.149 150.091C187.328 147.918 187.064 145.731 186.375 143.662C185.685 141.593 184.583 139.686 183.136 138.054C181.689 136.423 179.926 135.102 177.954 134.171L173.131 131.893C169.386 130.125 165.104 129.863 161.171 131.164C157.239 132.464 153.956 135.226 152.004 138.879L52.3485 325.303C50.6515 328.478 49.7637 332.022 49.7637 335.622V335.622C49.7637 341.426 52.0696 346.993 56.1743 351.098C60.2789 355.203 65.8459 357.509 71.6508 357.509H188.973V408.474C188.973 411.014 189.474 413.53 190.446 415.878C191.418 418.225 192.844 420.358 194.64 422.154C196.437 423.951 198.57 425.376 200.917 426.349C203.264 427.321 205.78 427.821 208.321 427.821H208.321C213.452 427.821 218.374 425.783 222.002 422.154C225.63 418.526 227.669 413.605 227.669 408.474V357.509H255.039C257.208 357.509 259.356 357.081 261.359 356.251C263.363 355.421 265.184 354.205 266.718 352.671C268.251 351.137 269.468 349.317 270.298 347.313C271.128 345.309 271.555 343.161 271.555 340.992V340.992C271.555 338.823 271.128 336.676 270.298 334.672C269.468 332.668 268.251 330.847 266.718 329.313C265.184 327.78 263.363 326.563 261.359 325.733C259.356 324.903 257.208 324.476 255.039 324.476V324.476Z" stroke="#3F3D56" stroke-miterlimit="10"/>
<path d="M768.461 324.476H741.091V243.878C741.091 239.597 739.39 235.492 736.363 232.465C733.336 229.438 729.23 227.737 724.95 227.737H718.536C716.417 227.737 714.318 228.155 712.359 228.966C710.401 229.777 708.622 230.966 707.123 232.465C705.624 233.963 704.435 235.743 703.624 237.701C702.813 239.66 702.395 241.758 702.395 243.878V324.476H625.194C623.605 324.476 622.044 324.065 620.661 323.284C619.279 322.503 618.121 321.378 617.301 320.017C616.482 318.657 616.027 317.108 615.983 315.521C615.938 313.933 616.304 312.361 617.046 310.957L698.755 156.307C699.774 154.379 700.392 152.264 700.571 150.091C700.749 147.918 700.486 145.731 699.797 143.662C699.107 141.593 698.005 139.686 696.558 138.054C695.111 136.423 693.348 135.102 691.376 134.171L686.553 131.893C682.807 130.125 678.525 129.863 674.593 131.164C670.66 132.464 667.378 135.226 665.426 138.879L565.77 325.303C564.073 328.478 563.186 332.022 563.186 335.622C563.186 341.426 565.492 346.993 569.596 351.098C573.701 355.203 579.268 357.509 585.073 357.509H702.395V408.474C702.395 413.605 704.433 418.526 708.062 422.154C711.69 425.783 716.611 427.821 721.743 427.821V427.821C726.874 427.821 731.795 425.783 735.424 422.154C739.052 418.526 741.091 413.605 741.091 408.474V357.509H768.461C770.63 357.509 772.777 357.081 774.781 356.251C776.785 355.421 778.606 354.205 780.139 352.671C781.673 351.137 782.89 349.317 783.72 347.313C784.55 345.309 784.977 343.161 784.977 340.992V340.992C784.977 336.612 783.237 332.411 780.139 329.313C777.042 326.216 772.841 324.476 768.461 324.476V324.476Z" stroke="#3F3D56" stroke-miterlimit="10"/>
<path d="M415.954 120.144C349.756 120.144 302.227 162.614 302.227 261.713C302.227 374.024 349.756 403.754 415.954 403.754C482.152 403.754 532.512 371.193 532.512 261.713C532.512 144.682 482.152 120.144 415.954 120.144ZM416.389 366.474C370.539 366.474 346.585 339.575 346.585 261.785C346.585 193.147 371.519 156.952 417.37 156.952C463.22 156.952 488.154 180.727 488.154 261.785C488.154 337.614 462.239 366.474 416.389 366.474V366.474Z" stroke="#3F3D56" stroke-miterlimit="10"/>
<path d="M362.894 23.9935C368.382 23.9935 372.831 19.5445 372.831 14.0564C372.831 8.56835 368.382 4.11938 362.894 4.11938C357.406 4.11938 352.957 8.56835 352.957 14.0564C352.957 19.5445 357.406 23.9935 362.894 23.9935Z" fill="#2F2E41"/>
<path d="M387.129 72.2253C402.522 72.2253 415.001 56.0571 415.001 36.1127C415.001 16.1682 402.522 0 387.129 0C371.736 0 359.257 16.1682 359.257 36.1127C359.257 56.0571 371.736 72.2253 387.129 72.2253Z" fill="#2F2E41"/>
<path opacity="0.1" d="M387.129 61.3186C373.166 61.3186 361.602 48.0161 359.573 30.6592C359.362 32.4693 359.256 34.2901 359.257 36.1124C359.257 56.0569 371.736 72.2251 387.129 72.2251C402.522 72.2251 415.001 56.0569 415.001 36.1124C415.001 34.2901 414.896 32.4693 414.685 30.6592C412.656 48.0161 401.092 61.3186 387.129 61.3186Z" fill="black"/>
<path d="M443.848 141.87C443.249 144.33 440.668 146.3 437.81 147.676C431.801 150.57 424.388 151.433 417.199 151.723C415.364 151.835 413.524 151.801 411.695 151.622C408.152 151.279 404.827 149.751 402.26 147.284C402.076 147.165 401.926 147.001 401.824 146.807C401.721 146.614 401.669 146.398 401.672 146.179C401.675 145.961 401.734 145.746 401.843 145.556C401.951 145.367 402.106 145.207 402.293 145.094C406.121 140.889 412.508 138.311 418.943 136.454C423.822 135.047 432.331 131.401 437.652 131.893C442.807 132.37 444.604 138.765 443.848 141.87Z" fill="#3F3D56"/>
<path opacity="0.1" d="M443.848 141.87C443.249 144.33 440.668 146.3 437.81 147.676C431.801 150.57 424.388 151.433 417.199 151.723C415.364 151.835 413.524 151.801 411.695 151.622C408.152 151.279 404.827 149.751 402.26 147.284C402.076 147.165 401.926 147.001 401.824 146.807C401.721 146.614 401.669 146.398 401.672 146.179C401.675 145.961 401.734 145.746 401.843 145.556C401.951 145.367 402.106 145.207 402.293 145.094C406.121 140.889 412.508 138.311 418.943 136.454C423.822 135.047 432.331 131.401 437.652 131.893C442.807 132.37 444.604 138.765 443.848 141.87Z" fill="black"/>
<path d="M367.441 123.487C365.607 127.082 365.275 131.259 366.518 135.099C367.782 138.909 370.149 142.259 373.318 144.724C381.094 150.957 391.795 151.814 401.759 151.728C410.492 151.652 419.213 151.054 427.875 149.938C430.777 149.681 433.63 149.018 436.349 147.97C439.601 146.563 442.459 143.982 443.617 140.633C444.774 137.284 443.953 133.183 441.203 130.948C438.787 128.984 435.455 128.714 432.347 128.527L414.564 127.459C416.32 125.681 418.66 124.675 420.799 123.382C423.638 121.667 425.524 118.788 427.588 116.192C430.768 112.392 434.228 108.834 437.939 105.55C438.517 108.87 440.618 111.596 443.089 113.887C445.561 116.178 448.411 118.022 450.98 120.203C457.202 125.486 461.683 132.656 468.227 137.534C472.729 136.351 476.938 134.25 480.589 131.363L478.045 126.755C477.833 126.281 477.503 125.869 477.087 125.559C476.367 125.116 475.438 125.345 474.602 125.219C472.368 124.884 471.392 122.305 470.516 120.222C468.109 114.506 463.5 110.071 459.564 105.277C456.659 101.738 454.082 97.9424 451.865 93.9367C450.543 91.5477 449.333 89.0602 447.538 87.002C445.744 84.9438 443.23 83.3256 440.499 83.3198C438.087 83.3147 435.862 84.5396 433.787 85.7716C427.47 89.5243 421.391 93.6656 415.586 98.1717C412.549 100.53 409.53 103.021 405.967 104.468C404.467 105.076 402.885 105.492 401.446 106.233C398.925 107.531 397.011 109.726 394.952 111.674C387.605 118.624 377.547 123.127 367.441 123.487Z" fill="#3F3D56"/>
<path d="M404.626 74.0182C404.544 76.1427 404.092 78.2365 403.291 80.2059C402.885 81.1881 402.281 82.0761 401.517 82.8146C400.752 83.5531 399.844 84.1262 398.848 84.4982C397.435 84.8769 395.953 84.925 394.517 84.6387C393.266 84.508 392.06 84.0971 390.988 83.4366C389.321 82.2902 388.49 80.2446 388.187 78.2427C387.884 76.2431 388.019 74.2 387.826 72.1859C387.637 70.5591 387.327 68.9486 386.9 67.3677C386.769 66.8417 386.636 66.3182 386.505 65.7947C386.376 65.2712 386.25 64.7477 386.134 64.2242C386.027 63.7322 385.928 63.2378 385.843 62.7409C385.773 62.3216 385.71 61.8999 385.664 61.4757C385.621 60.2183 385.412 58.9722 385.041 57.77C384.693 56.9903 384.257 56.2528 383.742 55.5717C383.521 55.2566 383.308 54.9415 383.112 54.6143C382.544 53.764 382.28 52.7468 382.363 51.7278C382.386 51.5702 382.424 51.4152 382.477 51.2648C382.496 51.2067 382.518 51.1485 382.542 51.0928C382.76 51.0336 382.96 50.922 383.125 50.7679C383.291 50.6137 383.416 50.4215 383.49 50.2081C383.573 49.7496 383.534 49.2772 383.376 48.8387C383.195 48.2261 382.947 47.6352 382.637 47.0767C382.433 46.7083 381.742 46.0442 381.737 45.6225C381.728 44.7742 383.385 44.0907 384.057 43.7563C386.106 42.7301 388.391 42.2667 390.678 42.4135C392.145 42.5129 393.735 42.9637 394.544 44.1925C395.271 45.3001 395.174 46.7349 395.484 48.0219C395.517 48.209 395.596 48.3848 395.715 48.5333C395.873 48.6774 396.072 48.7689 396.284 48.795C396.643 48.8665 397.011 48.8812 397.375 48.8387H397.377C397.473 48.8311 397.569 48.8173 397.663 48.7975C398.23 48.693 398.765 48.4618 399.229 48.1213C399.53 48.0413 399.833 47.9759 400.138 47.925C400.15 47.9237 400.162 47.9213 400.174 47.9177C401.389 51.7495 401.546 55.8576 402.54 59.7597C403.032 61.7011 403.737 63.6182 403.836 65.6153C403.844 65.7026 403.846 65.7922 403.849 65.8819C403.863 66.5242 403.812 67.1713 403.839 67.8112C403.848 68.0993 403.881 68.3862 403.936 68.6691C404.044 69.1242 404.18 69.5725 404.341 70.0119L404.348 70.0337C404.394 70.1742 404.437 70.3172 404.474 70.4602C404.5 70.5644 404.525 70.6662 404.544 70.7705L404.547 70.7777C404.726 71.8487 404.753 72.9397 404.626 74.0182Z" fill="#FBBEBE"/>
<path d="M387.612 48.9577C395.51 48.9577 401.912 42.5555 401.912 34.6581C401.912 26.7606 395.51 20.3584 387.612 20.3584C379.715 20.3584 373.312 26.7606 373.312 34.6581C373.312 42.5555 379.715 48.9577 387.612 48.9577Z" fill="#FBBEBE"/>
<path d="M478.399 112.571C477.985 108.669 476.598 104.934 474.366 101.708C474.737 103.913 475.109 106.118 475.481 108.322C475.018 108.456 474.526 108.452 474.066 108.31C473.605 108.168 473.196 107.895 472.888 107.525C472.286 106.773 471.825 105.918 471.528 105.001C469.904 100.968 467.779 97.1553 465.205 93.6514C456.102 92.8928 447.102 89.1192 439.097 84.7202C431.089 80.3236 423.595 75.0522 415.694 70.469C414.324 69.641 412.897 68.912 411.424 68.2877C408.951 67.2964 406.176 66.7826 403.833 65.6168C403.675 65.5392 403.518 65.4568 403.362 65.372C402.833 65.0841 402.332 64.7473 401.865 64.3662C401.612 64.1613 401.373 63.9411 401.147 63.7069C399.978 62.3465 399.051 60.7955 398.406 59.1214C397.148 56.339 396.7 52.9822 395.444 50.1998C396.021 49.6606 396.67 49.2031 397.371 48.8402H397.374C397.475 48.7868 397.577 48.7359 397.681 48.6875C398.178 48.4535 398.695 48.2645 399.225 48.1228C399.526 48.0428 399.829 47.9773 400.134 47.9264C400.146 47.9252 400.159 47.9227 400.171 47.9192C401.587 47.6884 403.038 47.8032 404.4 48.2536C406.392 48.9274 408.072 50.2726 409.746 51.545C412.467 53.4618 415.077 55.5317 417.563 57.7447C418.944 59.068 420.205 60.5222 421.69 61.7244C422.925 62.6772 424.227 63.5399 425.585 64.3056C433.624 69.0948 441.665 73.8831 449.706 78.6707C452.427 80.2921 455.152 81.9136 457.813 83.6295C461.855 86.2374 465.753 89.0634 469.648 91.887C471.943 93.5496 474.237 95.213 476.531 96.8773C477.283 97.3573 477.944 97.968 478.482 98.6805C478.957 99.4895 479.252 100.391 479.347 101.325C479.923 105.096 479.598 108.949 478.399 112.571Z" fill="#FBBEBE"/>
<path d="M408.169 84.7733C407.204 89.0995 402.832 91.7147 400.546 95.515C397.706 100.231 398.864 105.714 399.931 111.116C397.982 112.796 396.033 114.475 394.082 116.155C393.006 117.078 391.93 118.007 390.772 118.823C389.082 119.955 387.317 120.969 385.488 121.858C383.762 122.745 382.037 123.633 380.311 124.521C378.707 125.423 377.007 126.144 375.243 126.669C371.843 127.541 368.231 126.931 364.867 125.92C364.471 125.816 364.089 125.66 363.733 125.457C363.523 125.332 363.34 125.166 363.195 124.97C362.863 124.375 362.743 123.686 362.853 123.014C363.195 117.352 364.579 111.809 365.958 106.308C366.695 103.007 367.686 99.7682 368.922 96.6202C370.135 93.9228 371.528 91.3106 373.093 88.8014C374.821 85.6444 376.867 82.6728 379.201 79.9332C380.337 78.8788 381.293 77.6459 382.032 76.2832C382.892 74.32 382.56 72.0684 382.735 69.9307C382.868 68.3246 383.295 66.7566 383.993 65.304V65.3015C384.366 64.5191 384.816 63.7755 385.335 63.0814C385.57 63.6292 385.805 64.1761 386.041 64.7223C386.196 65.081 386.349 65.4389 386.501 65.796C386.7 66.2565 386.897 66.7154 387.092 67.1726C387.657 68.4863 388.221 69.7991 388.784 71.1111C389.393 72.7636 390.26 74.309 391.353 75.6894C391.853 76.3963 392.528 76.9615 393.311 77.3298C394.095 77.6981 394.96 77.8568 395.823 77.7907C396.687 77.7245 397.518 77.4356 398.236 76.9522C398.954 76.4688 399.535 75.8074 399.921 75.0326C400.736 73.5863 401.326 72.0246 401.671 70.401C402.149 68.424 402.215 66.3696 401.865 64.366C401.281 60.5075 399.64 56.5667 398.447 52.9821C397.962 51.7869 397.681 50.5186 397.616 49.2302C397.618 49.0854 397.633 48.9411 397.66 48.7988C397.667 48.7624 397.674 48.7237 397.681 48.6873C398.178 48.4534 398.695 48.2644 399.225 48.1226C399.526 48.0426 399.829 47.9772 400.134 47.9263C401.184 53.6074 402.235 59.2884 403.287 64.9695C403.312 65.1028 403.338 65.2361 403.363 65.3718C403.513 66.1862 403.665 67.0006 403.835 67.8125C403.988 68.5493 404.153 69.2836 404.337 70.0132L404.344 70.035C404.407 70.2822 404.473 70.527 404.54 70.7718L404.543 70.779C404.729 71.448 404.938 72.1121 405.173 72.7664C406.598 76.7097 409.082 80.6797 408.169 84.7733Z" fill="#04536C"/>
<path d="M466.203 145.57C466.158 146.403 466.319 147.235 466.673 147.991C467.568 149.627 469.715 149.999 471.573 150.152C482.428 151.044 493.348 150.711 504.128 149.16C504.713 149.12 505.28 148.944 505.785 148.645C507.318 147.571 506.373 144.952 504.699 144.114C503.026 143.275 501.04 143.477 499.203 143.114C497.379 142.655 495.642 141.902 494.06 140.884C490.336 138.744 486.666 136.513 483.051 134.192C480.898 132.809 478.358 131.334 475.934 132.154C469.367 134.375 466.159 138.487 466.203 145.57Z" fill="#3F3D56"/>
<path d="M386.188 63.9214V63.9239C386.171 64.0257 386.154 64.125 386.133 64.2244C386.106 64.3892 386.074 64.5564 386.043 64.7212C385.742 66.2603 385.374 67.792 384.95 69.3141C383.786 73.5191 382.228 77.6563 380.682 81.733C376.532 92.6637 372.382 103.595 368.231 114.528C367.184 117.281 366.14 120.037 364.95 122.734C364.552 123.633 364.143 124.54 363.735 125.456C362.276 128.735 360.875 132.121 360.41 135.611C359.976 137.908 359.926 140.261 360.262 142.574C360.728 144.862 362.116 147.097 364.29 147.943C365.352 148.357 366.872 148.912 366.581 150.015C366.423 150.621 365.735 150.917 365.117 151.018C364.301 151.148 363.466 151.097 362.672 150.869C361.878 150.64 361.144 150.239 360.522 149.695C359.361 148.665 358.469 147.063 356.925 146.891C355.856 146.775 354.872 147.414 353.893 147.863C349.899 149.688 345.245 148.411 341.05 147.114C341.379 145.415 343.086 144.295 344.78 143.956C346.474 143.614 348.226 143.856 349.954 143.81C350.508 143.84 351.057 143.699 351.527 143.406C351.949 143.019 352.245 142.514 352.376 141.956C353.489 138.658 354.317 135.27 354.85 131.83C355.408 128.236 355.64 124.586 356.435 121.035C357.053 118.265 358.008 115.582 358.827 112.863C360.412 107.264 361.712 101.588 362.725 95.8581C363.237 93.4775 363.603 91.0679 363.823 88.6428C363.961 86.6312 363.895 84.6098 364.089 82.6055C364.415 79.9978 364.959 77.4221 365.716 74.9055C366.457 72.1595 367.198 69.4151 367.938 66.6723C369.036 62.6126 370.214 58.3955 372.996 55.2398C373.963 54.1289 375.147 53.2283 376.475 52.5938C377.804 51.9592 379.249 51.6043 380.72 51.551C381.272 51.5504 381.822 51.6097 382.361 51.7279C382.451 51.7498 382.541 51.7716 382.63 51.7958C383.218 51.9493 383.781 52.1826 384.305 52.489C385.163 51.9437 385.599 52.1351 386.169 52.9761C386.668 53.8662 386.904 54.8801 386.848 55.8991C386.896 58.5885 386.675 61.276 386.188 63.9214Z" fill="#FBBEBE"/>
<path d="M387.129 67.1363L387.093 67.1727L386.897 67.369L384.948 69.3152L383.993 65.304L380.719 51.5521C381.27 51.5514 381.821 51.6108 382.36 51.729C382.383 51.5715 382.421 51.4165 382.473 51.2661L382.629 51.7969L383.739 55.573L385.84 62.7422L386.187 63.9225V63.9249L387.129 67.1363Z" fill="#04536C"/>
<path d="M399.496 23.2631C399.494 24.5364 399.241 25.797 398.752 26.9727C398.263 28.1484 397.547 29.2162 396.645 30.115C396.319 30.4422 395.969 30.745 395.598 31.0211C393.925 32.2819 391.888 32.9643 389.794 32.9653H378.166C375.597 32.9613 373.134 31.9379 371.318 30.1197C369.503 28.3015 368.483 25.8372 368.483 23.2678C368.483 20.6985 369.503 18.2341 371.318 16.4159C373.134 14.5977 375.597 13.5743 378.166 13.5703H389.794C392.363 13.577 394.825 14.6001 396.643 16.4161C398.461 18.2321 399.486 20.6936 399.496 23.2631Z" fill="#2F2E41"/>
<path d="M410.396 23.9935C415.884 23.9935 420.333 19.5445 420.333 14.0564C420.333 8.56835 415.884 4.11938 410.396 4.11938C404.908 4.11938 400.459 8.56835 400.459 14.0564C400.459 19.5445 404.908 23.9935 410.396 23.9935Z" fill="#2F2E41"/>
<path opacity="0.1" d="M410.156 4.11938C410.034 4.11938 409.913 4.12422 409.792 4.12858C412.363 4.22203 414.797 5.30891 416.582 7.16053C418.368 9.01215 419.365 11.4842 419.365 14.0564C419.365 16.6287 418.368 19.1007 416.582 20.9523C414.797 22.804 412.363 23.8908 409.792 23.9843C409.913 23.9886 410.034 23.9935 410.156 23.9935C412.791 23.9935 415.319 22.9465 417.182 21.083C419.046 19.2194 420.093 16.6919 420.093 14.0564C420.093 11.421 419.046 8.89344 417.182 7.02988C415.319 5.16632 412.791 4.11938 410.156 4.11938Z" fill="black"/>
<path opacity="0.1" d="M362.892 4.11938C363.014 4.11938 363.135 4.12422 363.256 4.12858C360.685 4.22203 358.251 5.30891 356.466 7.16053C354.68 9.01215 353.682 11.4842 353.682 14.0564C353.682 16.6287 354.68 19.1007 356.466 20.9523C358.251 22.804 360.685 23.8908 363.256 23.9843C363.135 23.9886 363.014 23.9935 362.892 23.9935C360.258 23.9912 357.733 22.9432 355.871 21.0799C354.01 19.2166 352.964 16.6904 352.964 14.0564C352.964 11.4225 354.01 8.89628 355.871 7.03297C357.733 5.16967 360.258 4.1217 362.892 4.11938Z" fill="black"/>
<path opacity="0.1" d="M395.595 31.0222C393.922 32.283 391.885 32.9654 389.79 32.9664H378.163C376.068 32.9654 374.031 32.283 372.358 31.0222H395.595Z" fill="black"/>
<path d="M470.684 103.025C470.684 103.025 473.189 110.243 475.481 108.321L473.654 98.8857L470.684 103.025Z" fill="#FBBEBE"/>
<path d="M775.53 323.155C777.863 324.003 780.361 324.298 782.828 324.016C785.295 323.733 787.662 322.882 789.744 321.529C791.825 320.176 793.564 318.358 794.823 316.218C796.082 314.079 796.827 311.676 796.999 309.199C797.171 306.722 796.765 304.24 795.814 301.946C794.863 299.653 793.392 297.612 791.517 295.984C789.643 294.357 787.416 293.186 785.012 292.566C782.608 291.946 780.093 291.893 777.665 292.41L778.066 300.661L774.162 293.59C770.331 295.39 767.371 298.638 765.933 302.619C765.422 304.014 765.112 305.474 765.011 306.956C764.764 310.432 765.658 313.894 767.556 316.818C769.454 319.741 772.254 321.965 775.53 323.155Z" fill="#57B894"/>
<path d="M794.844 418.853C793.466 411.836 799.437 405.615 805.336 401.571C811.234 397.528 818.125 393.555 820.138 386.693C823.03 376.831 814.415 367.799 807.71 360.01C802.735 354.23 798.463 347.881 794.982 341.095C793.587 338.374 792.305 335.53 791.938 332.494C791.409 328.123 792.814 323.773 794.229 319.603C798.942 305.712 803.982 291.937 809.348 278.279" stroke="#3F3D56" stroke-miterlimit="10"/>
<path d="M776.191 321.031C778.524 321.879 781.022 322.174 783.489 321.891C785.956 321.609 788.323 320.758 790.405 319.405C792.486 318.052 794.225 316.234 795.484 314.094C796.743 311.955 797.488 309.552 797.66 307.075C797.832 304.598 797.426 302.115 796.475 299.822C795.524 297.529 794.053 295.488 792.178 293.86C790.304 292.233 788.077 291.062 785.673 290.442C783.269 289.822 780.754 289.769 778.326 290.286L778.727 298.537L774.823 291.466C770.992 293.266 768.032 296.514 766.594 300.495C766.083 301.89 765.773 303.35 765.672 304.832C765.426 308.308 766.319 311.77 768.217 314.693C770.115 317.617 772.915 319.841 776.191 321.031V321.031Z" stroke="#3F3D56" stroke-miterlimit="10"/>
<path d="M792.885 275.43C793.801 272.903 795.338 270.648 797.354 268.871C799.37 267.095 801.802 265.854 804.423 265.264L805.743 273.108L808.19 264.87C811.588 264.921 814.882 266.049 817.596 268.094C820.31 270.138 822.304 272.992 823.291 276.244C824.277 279.495 824.205 282.976 823.084 286.184C821.963 289.392 819.852 292.161 817.055 294.09C814.258 296.02 810.92 297.011 807.524 296.92C804.127 296.829 800.847 295.661 798.157 293.585C795.468 291.508 793.507 288.63 792.56 285.367C791.612 282.104 791.726 278.624 792.885 275.43H792.885Z" fill="#57B894"/>
<path d="M793.765 272.597C794.681 270.071 796.217 267.815 798.234 266.039C800.25 264.262 802.681 263.022 805.303 262.432L806.623 270.276L809.07 262.037C812.468 262.088 815.761 263.217 818.476 265.261C821.19 267.305 823.184 270.159 824.171 273.411C825.157 276.663 825.085 280.144 823.964 283.351C822.843 286.559 820.732 289.328 817.935 291.258C815.138 293.187 811.8 294.178 808.403 294.087C805.007 293.996 801.727 292.828 799.037 290.752C796.347 288.675 794.387 285.798 793.44 282.534C792.492 279.271 792.606 275.791 793.765 272.597H793.765Z" stroke="#3F3D56" stroke-miterlimit="10"/>
<path d="M804.899 360.17C808.599 361.512 812.664 361.446 816.318 359.984C819.973 358.521 822.962 355.766 824.715 352.241C826.469 348.717 826.864 344.671 825.826 340.874C824.787 337.077 822.388 333.795 819.086 331.653L817.205 337.984L815.872 330.048C815.859 330.041 815.845 330.036 815.831 330.032C813.852 329.313 811.75 328.991 809.647 329.084C807.543 329.177 805.478 329.684 803.57 330.575C801.662 331.467 799.949 332.725 798.528 334.279C797.106 335.833 796.005 337.652 795.287 339.631C794.569 341.611 794.248 343.713 794.342 345.816C794.437 347.92 794.945 349.985 795.837 351.892C796.73 353.799 797.99 355.512 799.544 356.932C801.099 358.353 802.918 359.453 804.898 360.17H804.899Z" fill="#57B894"/>
<path d="M805.66 357.299C809.361 358.642 813.426 358.575 817.08 357.113C820.735 355.651 823.724 352.895 825.477 349.371C827.23 345.847 827.625 341.801 826.587 338.004C825.549 334.207 823.15 330.925 819.847 328.783L817.967 335.114L816.634 327.177C816.621 327.171 816.607 327.166 816.593 327.162C814.614 326.443 812.512 326.12 810.408 326.213C808.305 326.307 806.24 326.813 804.332 327.705C802.424 328.596 800.711 329.855 799.289 331.409C797.868 332.963 796.767 334.781 796.049 336.761C795.331 338.741 795.01 340.842 795.104 342.946C795.198 345.05 795.706 347.114 796.599 349.022C797.492 350.929 798.751 352.642 800.306 354.062C801.861 355.482 803.68 356.583 805.66 357.299H805.66Z" stroke="#3F3D56" stroke-miterlimit="10"/>
<path d="M788.209 386.79C788.845 390.411 790.707 393.702 793.482 396.113C796.257 398.523 799.776 399.907 803.45 400.03C807.124 400.154 810.728 399.011 813.659 396.792C816.59 394.574 818.669 391.415 819.547 387.846C820.426 384.277 820.05 380.514 818.483 377.189C816.917 373.863 814.254 371.178 810.943 369.583C807.631 367.987 803.872 367.579 800.295 368.427C796.719 369.274 793.542 371.326 791.298 374.238L798.44 384.987L788.682 379.282C787.925 381.711 787.763 384.286 788.209 386.79Z" fill="#57B894"/>
<path d="M788.866 384.666C789.503 388.287 791.364 391.578 794.139 393.989C796.914 396.399 800.434 397.783 804.107 397.906C807.781 398.03 811.386 396.887 814.316 394.668C817.247 392.45 819.326 389.291 820.204 385.722C821.083 382.153 820.707 378.39 819.141 375.065C817.574 371.739 814.912 369.054 811.6 367.459C808.288 365.863 804.529 365.455 800.952 366.303C797.376 367.15 794.199 369.202 791.955 372.113L799.098 382.863L789.339 377.158C788.582 379.587 788.42 382.162 788.866 384.666V384.666Z" stroke="#3F3D56" stroke-miterlimit="10"/>
<path d="M6.93737 362.206C8.47038 362.763 10.1119 362.957 11.7325 362.771C13.3531 362.586 14.9085 362.027 16.2762 361.138C17.6438 360.249 18.7863 359.054 19.6135 357.649C20.4407 356.243 20.9301 354.664 21.0431 353.037C21.1561 351.409 20.8896 349.778 20.2646 348.272C19.6396 346.765 18.6732 345.424 17.4416 344.354C16.2099 343.285 14.7467 342.516 13.1673 342.109C11.5878 341.701 9.93531 341.666 8.33998 342.006L8.60361 347.427L6.0388 342.781C3.52159 343.964 1.57693 346.098 0.632186 348.714C0.296667 349.63 0.0926955 350.589 0.0263582 351.563C-0.135534 353.847 0.451552 356.122 1.69865 358.042C2.94574 359.963 4.78488 361.424 6.93737 362.206Z" fill="#57B894"/>
<path d="M19.6267 425.081C18.7214 420.471 22.6446 416.384 26.5198 413.727C30.395 411.07 34.9229 408.46 36.2452 403.951C38.1455 397.472 32.4851 391.538 28.0795 386.42C24.811 382.623 22.0041 378.451 19.7175 373.993C18.7234 372.241 18.0464 370.329 17.7174 368.342C17.3701 365.47 18.2928 362.612 19.2224 359.872C22.3193 350.745 25.6304 341.695 29.1557 332.722" stroke="#3F3D56" stroke-miterlimit="10"/>
<path d="M7.37097 360.811C8.90398 361.368 10.5455 361.562 12.1661 361.376C13.7867 361.191 15.3421 360.632 16.7098 359.743C18.0774 358.854 19.2198 357.659 20.0471 356.254C20.8743 354.848 21.3637 353.269 21.4767 351.642C21.5897 350.014 21.3232 348.383 20.6982 346.876C20.0732 345.37 19.1068 344.029 17.8752 342.959C16.6435 341.89 15.1803 341.121 13.6009 340.714C12.0214 340.306 10.3689 340.271 8.77358 340.611L9.03721 346.032L6.4724 341.386C3.95518 342.569 2.01053 344.703 1.06578 347.319C0.730264 348.235 0.526296 349.194 0.459955 350.168C0.298052 352.452 0.885135 354.727 2.13223 356.647C3.37933 358.568 5.21847 360.029 7.37097 360.811V360.811Z" stroke="#3F3D56" stroke-miterlimit="10"/>
<path d="M18.3435 330.85C18.9451 329.19 19.9548 327.708 21.2796 326.541C22.6045 325.374 24.2017 324.559 25.9243 324.171L26.7915 329.325L28.3993 323.912C30.6316 323.945 32.7956 324.687 34.5789 326.03C36.3622 327.373 37.6725 329.248 38.3207 331.384C38.9688 333.521 38.9213 335.808 38.1848 337.916C37.4484 340.023 36.0613 341.842 34.2236 343.11C32.386 344.378 30.193 345.029 27.9613 344.969C25.7295 344.909 23.5745 344.142 21.8073 342.778C20.0402 341.413 18.7523 339.523 18.1297 337.379C17.5071 335.235 17.582 332.948 18.3435 330.85Z" fill="#57B894"/>
<path d="M18.9187 328.989C19.5203 327.329 20.53 325.848 21.8548 324.68C23.1797 323.513 24.7769 322.698 26.4995 322.311L27.3667 327.464L28.9745 322.052C31.2068 322.085 33.3708 322.826 35.1541 324.169C36.9374 325.513 38.2477 327.388 38.8959 329.524C39.544 331.661 39.4965 333.948 38.76 336.055C38.0236 338.163 36.6365 339.982 34.7988 341.25C32.9612 342.518 30.7682 343.169 28.5365 343.109C26.3047 343.049 24.1497 342.282 22.3825 340.917C20.6154 339.553 19.3275 337.662 18.7049 335.518C18.0823 333.374 18.1572 331.088 18.9187 328.989V328.989Z" stroke="#3F3D56" stroke-miterlimit="10"/>
<path d="M26.2312 386.525C28.6624 387.407 31.3331 387.364 33.7342 386.403C36.1354 385.442 38.0991 383.632 39.2511 381.316C40.403 379.001 40.6627 376.342 39.9806 373.848C39.2985 371.353 37.7222 369.197 35.5524 367.789L34.317 371.949L33.4409 366.735C33.4323 366.731 33.4233 366.727 33.4141 366.724C32.1137 366.252 30.7328 366.04 29.3504 366.101C27.9681 366.162 26.6112 366.494 25.3575 367.08C24.1038 367.666 22.9779 368.493 22.0439 369.514C21.11 370.535 20.3864 371.73 19.9145 373.031C19.4426 374.331 19.2317 375.712 19.2938 377.095C19.3559 378.477 19.6898 379.834 20.2764 381.087C20.8631 382.34 21.6909 383.466 22.7126 384.399C23.7344 385.332 24.93 386.054 26.2312 386.525Z" fill="#57B894"/>
<path d="M26.7332 384.639C29.1644 385.521 31.8351 385.478 34.2363 384.517C36.6375 383.556 38.6012 381.746 39.7531 379.43C40.9051 377.115 41.1648 374.456 40.4827 371.962C39.8005 369.467 38.2243 367.311 36.0544 365.903L34.819 370.063L33.943 364.849C33.9344 364.844 33.9254 364.841 33.9162 364.838C32.6161 364.367 31.2358 364.156 29.8541 364.218C28.4724 364.279 27.1165 364.613 25.8636 365.199C23.3334 366.382 21.3768 368.522 20.4243 371.147C19.4717 373.773 19.6013 376.67 20.7845 379.2C21.9676 381.73 24.1075 383.687 26.7332 384.639V384.639Z" stroke="#3F3D56" stroke-miterlimit="10"/>
<path d="M15.2673 404.016C15.6853 406.394 16.9085 408.557 18.7317 410.141C20.5549 411.725 22.8672 412.633 25.2809 412.715C27.6946 412.796 30.0628 412.045 31.9884 410.587C33.914 409.13 35.2799 407.054 35.857 404.709C36.4341 402.364 36.1873 399.892 35.158 397.707C34.1287 395.523 32.3795 393.758 30.2037 392.71C28.028 391.662 25.558 391.394 23.208 391.951C20.858 392.507 18.771 393.855 17.2969 395.768L21.9894 402.831L15.5776 399.083C15.0805 400.678 14.974 402.37 15.2673 404.016Z" fill="#57B894"/>
<path d="M15.7009 402.619C16.1189 404.998 17.3421 407.16 19.1653 408.744C20.9885 410.328 23.3008 411.236 25.7145 411.318C28.1282 411.399 30.4964 410.648 32.422 409.19C34.3476 407.733 35.7135 405.657 36.2906 403.312C36.8677 400.967 36.6209 398.495 35.5916 396.31C34.5623 394.126 32.8131 392.361 30.6373 391.313C28.4616 390.265 25.9916 389.997 23.6416 390.554C21.2916 391.111 19.2046 392.458 17.7305 394.371L22.423 401.434L16.0112 397.686C15.5141 399.281 15.4076 400.973 15.7009 402.619V402.619Z" stroke="#3F3D56" stroke-miterlimit="10"/>
<path d="M370.446 262.743C377.677 262.743 383.54 255.156 383.54 245.797C383.54 236.439 377.677 228.852 370.446 228.852C363.214 228.852 357.352 236.439 357.352 245.797C357.352 255.156 363.214 262.743 370.446 262.743Z" fill="#2F2E41"/>
<path d="M441.691 263.127C448.923 263.127 454.785 255.54 454.785 246.182C454.785 236.823 448.923 229.236 441.691 229.236C434.459 229.236 428.597 236.823 428.597 246.182C428.597 255.54 434.459 263.127 441.691 263.127Z" fill="#2F2E41"/>
<path d="M431.679 296.248C431.679 303.904 420.988 310.112 407.801 310.112C394.615 310.112 383.924 303.904 383.924 296.248C383.924 289.616 391.942 284.071 402.656 282.715C404.362 282.49 406.081 282.379 407.801 282.384C410.684 282.374 413.559 282.684 416.374 283.308C425.324 285.303 431.679 290.348 431.679 296.248Z" fill="#2F2E41"/>
<path d="M373.527 258.891C380.759 258.891 386.621 251.304 386.621 241.945C386.621 232.587 380.759 225 373.527 225C366.295 225 360.433 232.587 360.433 241.945C360.433 251.304 366.295 258.891 373.527 258.891Z" stroke="#3F3D56" stroke-miterlimit="10"/>
<path d="M444.772 259.277C452.004 259.277 457.866 251.69 457.866 242.332C457.866 232.973 452.004 225.386 444.772 225.386C437.54 225.386 431.678 232.973 431.678 242.332C431.678 251.69 437.54 259.277 444.772 259.277Z" stroke="#3F3D56" stroke-miterlimit="10"/>
<path d="M410.883 306.26C424.071 306.26 434.761 300.053 434.761 292.396C434.761 284.739 424.071 278.531 410.883 278.531C397.696 278.531 387.006 284.739 387.006 292.396C387.006 300.053 397.696 306.26 410.883 306.26Z" stroke="#3F3D56" stroke-miterlimit="10"/>
<path d="M416.66 284.462C416.666 285.431 416.302 286.365 415.643 287.075C415.332 287.415 414.953 287.687 414.532 287.873C414.11 288.06 413.655 288.157 413.194 288.159H405.491C404.542 288.126 403.645 287.719 402.995 287.026C402.346 286.333 401.997 285.412 402.025 284.462C402.021 283.711 402.241 282.976 402.657 282.351C404.361 282.111 406.081 281.993 407.802 281.998C410.688 281.988 413.566 282.319 416.375 282.983C416.565 283.453 416.662 283.956 416.66 284.462Z" fill="white"/>
<path d="M373.525 241.175C375.652 241.175 377.376 239.451 377.376 237.324C377.376 235.197 375.652 233.473 373.525 233.473C371.398 233.473 369.674 235.197 369.674 237.324C369.674 239.451 371.398 241.175 373.525 241.175Z" fill="white"/>
<path d="M445.157 241.175C447.284 241.175 449.008 239.451 449.008 237.324C449.008 235.197 447.284 233.473 445.157 233.473C443.03 233.473 441.306 235.197 441.306 237.324C441.306 239.451 443.03 241.175 445.157 241.175Z" fill="white"/>
<path opacity="0.3" d="M449.01 277.377C451.137 277.377 452.862 275.653 452.862 273.526C452.862 271.399 451.137 269.675 449.01 269.675C446.883 269.675 445.159 271.399 445.159 273.526C445.159 275.653 446.883 277.377 449.01 277.377Z" fill="#04536C"/>
<path opacity="0.3" d="M355.039 277.377C357.166 277.377 358.89 275.653 358.89 273.526C358.89 271.399 357.166 269.675 355.039 269.675C352.912 269.675 351.188 271.399 351.188 273.526C351.188 275.653 352.912 277.377 355.039 277.377Z" fill="#04536C"/>
</g>
<defs>
<clipPath id="clip0_833_4021">
<rect width="827.543" height="450" fill="white"/>
</clipPath>
</defs>
</svg>
