<svg width="721" height="450" viewBox="0 0 721 450" fill="none" xmlns="http://www.w3.org/2000/svg">
<g clip-path="url(#clip0_835_267)">
<path d="M188.376 274.249C264.108 274.249 325.5 212.856 325.5 137.124C325.5 61.3927 264.108 0 188.376 0C112.644 0 51.2515 61.3927 51.2515 137.124C51.2515 212.856 112.644 274.249 188.376 274.249Z" fill="#F2F2F2"/>
<path d="M0 32.9241C0 82.8154 31.2992 123.187 69.979 123.187L0 32.9241Z" fill="#2F2E41"/>
<path d="M69.9785 123.187C69.9785 72.7352 104.907 31.9102 148.071 31.9102L69.9785 123.187Z" fill="#04536C"/>
<path d="M25.3535 37.4473C25.3535 84.8387 45.3124 123.187 69.9778 123.187L25.3535 37.4473Z" fill="#04536C"/>
<path d="M69.9785 123.188C69.9785 58.7215 110.35 6.55615 160.241 6.55615L69.9785 123.188Z" fill="#2F2E41"/>
<path d="M55.2588 123.824C55.2588 123.824 65.183 123.519 68.1739 121.389C71.1648 119.259 83.4397 116.716 84.1817 120.132C84.9237 123.547 99.0959 137.12 87.8916 137.21C76.6872 137.301 61.8576 135.465 58.8725 133.647C55.8874 131.828 55.2588 123.824 55.2588 123.824Z" fill="#A8A8A8"/>
<path opacity="0.2" d="M88.0915 136.021C76.8872 136.111 62.0576 134.276 59.0725 132.457C56.7991 131.073 55.8932 126.104 55.5901 123.811C55.3802 123.82 55.2588 123.824 55.2588 123.824C55.2588 123.824 55.8874 131.828 58.8725 133.646C61.8577 135.465 76.6872 137.3 87.8916 137.21C91.1258 137.184 92.243 136.033 92.1817 134.329C91.7323 135.359 90.4988 136.002 88.0915 136.021Z" fill="black"/>
<path d="M127.858 289.66C194.345 289.66 248.244 282.328 248.244 273.282C248.244 264.237 194.345 256.905 127.858 256.905C61.3704 256.905 7.47168 264.237 7.47168 273.282C7.47168 282.328 61.3704 289.66 127.858 289.66Z" fill="#3F3D56"/>
<path opacity="0.1" d="M127.861 287.033C183.682 287.033 228.934 280.877 228.934 273.283C228.934 265.689 183.682 259.532 127.861 259.532C72.04 259.532 26.7881 265.689 26.7881 273.283C26.7881 280.877 72.04 287.033 127.861 287.033Z" fill="black"/>
<path d="M538.59 450C639.21 450 720.779 438.903 720.779 425.215C720.779 411.526 639.21 400.429 538.59 400.429C437.97 400.429 356.401 411.526 356.401 425.215C356.401 438.903 437.97 450 538.59 450Z" fill="#3F3D56"/>
<path d="M199.963 430.447C260.406 430.447 309.405 423.781 309.405 415.558C309.405 407.336 260.406 400.67 199.963 400.67C139.52 400.67 90.521 407.336 90.521 415.558C90.521 423.781 139.52 430.447 199.963 430.447Z" fill="#3F3D56"/>
<path d="M297.815 403.004C355.755 417.811 467.128 383.691 479.36 345.064" stroke="#2F2E41" stroke-width="2" stroke-miterlimit="10"/>
<path d="M199.318 166.738C199.318 166.738 283.009 143.562 288.16 218.24C293.31 292.918 219.275 314.163 277.215 328.97" stroke="#2F2E41" stroke-width="2" stroke-miterlimit="10"/>
<path d="M118.46 345.89C118.46 345.89 143.614 338.924 145.162 361.369C146.71 383.814 124.458 390.2 141.872 394.65" stroke="#2F2E41" stroke-width="2" stroke-miterlimit="10"/>
<path d="M501.316 362.601L496.244 394.98C496.244 394.98 471.277 408.243 488.832 408.634C506.387 409.024 589.09 408.634 589.09 408.634C589.09 408.634 605.084 408.634 579.727 394.59L574.656 360.65L501.316 362.601Z" fill="#2F2E41"/>
<path opacity="0.1" d="M485.297 408.282C489.284 404.735 496.24 401.038 496.24 401.038L501.312 368.66L574.652 368.729L579.723 400.648C585.636 403.923 589.299 406.434 591.442 408.36C594.699 407.616 598.258 404.855 579.723 394.59L574.652 360.65L501.312 362.601L496.24 394.98C496.24 394.98 475.261 406.127 485.297 408.282Z" fill="black"/>
<path d="M691.189 136.925H384.003C377.587 136.925 372.385 142.126 372.385 148.542V355.47C372.385 361.886 377.587 367.088 384.003 367.088H691.189C697.605 367.088 702.806 361.886 702.806 355.47V148.542C702.806 142.126 697.605 136.925 691.189 136.925Z" fill="#2F2E41"/>
<path d="M691.682 149.212H383.497V321.639H691.682V149.212Z" fill="#3F3D56"/>
<path d="M537.592 145.701C538.669 145.701 539.542 144.828 539.542 143.751C539.542 142.673 538.669 141.8 537.592 141.8C536.514 141.8 535.641 142.673 535.641 143.751C535.641 144.828 536.514 145.701 537.592 145.701Z" fill="#F2F2F2"/>
<path d="M702.806 335.294V355.47C702.806 356.996 702.506 358.506 701.922 359.916C701.338 361.326 700.483 362.606 699.404 363.685C698.325 364.764 697.044 365.62 695.635 366.203C694.225 366.787 692.714 367.088 691.189 367.087H384.003C382.477 367.088 380.966 366.787 379.557 366.203C378.147 365.62 376.866 364.764 375.787 363.685C374.709 362.606 373.853 361.326 373.269 359.916C372.685 358.506 372.385 356.996 372.385 355.47V335.294H702.806Z" fill="#2F2E41"/>
<path d="M623.807 429.699V433.601H413.929V430.48L414.218 429.699L419.391 415.655H619.515L623.807 429.699Z" fill="#2F2E41"/>
<path d="M704.577 425.88C704.194 427.514 702.751 429.239 699.49 430.869C687.786 436.721 663.99 429.309 663.99 429.309C663.99 429.309 645.655 426.188 645.655 417.996C646.17 417.643 646.706 417.324 647.262 417.04C652.182 414.437 668.497 408.013 697.424 417.312C699.555 417.981 701.458 419.228 702.922 420.915C704.094 422.287 705.013 424.028 704.577 425.88Z" fill="#2F2E41"/>
<path opacity="0.1" d="M704.576 425.88C690.251 431.368 677.483 431.778 664.379 422.677C657.771 418.089 651.767 416.954 647.261 417.04C652.182 414.437 668.496 408.013 697.423 417.312C699.554 417.981 701.458 419.228 702.921 420.915C704.094 422.287 705.013 424.028 704.576 425.88Z" fill="black"/>
<path d="M686.611 422.678C689.412 422.678 691.682 421.979 691.682 421.118C691.682 420.256 689.412 419.557 686.611 419.557C683.81 419.557 681.54 420.256 681.54 421.118C681.54 421.979 683.81 422.678 686.611 422.678Z" fill="#F2F2F2"/>
<path d="M537.592 358.699C541.685 358.699 545.004 355.381 545.004 351.287C545.004 347.194 541.685 343.875 537.592 343.875C533.498 343.875 530.18 347.194 530.18 351.287C530.18 355.381 533.498 358.699 537.592 358.699Z" fill="#F2F2F2"/>
<path opacity="0.1" d="M623.807 429.7V433.601H413.929V430.48L414.218 429.7H623.807Z" fill="black"/>
<path d="M203.826 102.36H69.9199V258.154H203.826V102.36Z" fill="#2F2E41"/>
<path d="M217.346 86.9094H56.4014V142.274H217.346V86.9094Z" fill="#3F3D56"/>
<path d="M217.346 152.575H56.4014V207.94H217.346V152.575Z" fill="#3F3D56"/>
<path d="M217.346 218.241H56.4014V273.606H217.346V218.241Z" fill="#3F3D56"/>
<path opacity="0.4" d="M185.156 96.5659H174.855V106.866H185.156V96.5659Z" fill="#04536C"/>
<path opacity="0.8" d="M199.963 96.5659H189.662V106.866H199.963V96.5659Z" fill="#04536C"/>
<path d="M214.769 96.5659H204.469V106.866H214.769V96.5659Z" fill="#04536C"/>
<path opacity="0.4" d="M185.156 161.587H174.855V171.888H185.156V161.587Z" fill="#04536C"/>
<path opacity="0.8" d="M199.963 161.587H189.662V171.888H199.963V161.587Z" fill="#04536C"/>
<path d="M214.769 161.587H204.469V171.888H214.769V161.587Z" fill="#04536C"/>
<path opacity="0.4" d="M185.156 226.609H174.855V236.909H185.156V226.609Z" fill="#04536C"/>
<path opacity="0.8" d="M199.963 226.609H189.662V236.909H199.963V226.609Z" fill="#04536C"/>
<path d="M214.769 226.609H204.469V236.909H214.769V226.609Z" fill="#04536C"/>
<path d="M203.824 397.211C231.912 397.211 254.682 374.441 254.682 346.352C254.682 318.264 231.912 295.494 203.824 295.494C175.735 295.494 152.965 318.264 152.965 346.352C152.965 374.441 175.735 397.211 203.824 397.211Z" fill="#2F2E41"/>
<path d="M196.101 386.267H180.65V413.949H196.101V386.267Z" fill="#2F2E41"/>
<path d="M227.003 386.267H211.552V413.949H227.003V386.267Z" fill="#2F2E41"/>
<path d="M193.525 419.098C200.636 419.098 206.401 416.937 206.401 414.27C206.401 411.603 200.636 409.442 193.525 409.442C186.414 409.442 180.65 411.603 180.65 414.27C180.65 416.937 186.414 419.098 193.525 419.098Z" fill="#2F2E41"/>
<path d="M224.427 418.454C231.538 418.454 237.303 416.292 237.303 413.626C237.303 410.959 231.538 408.797 224.427 408.797C217.316 408.797 211.552 410.959 211.552 413.626C211.552 416.292 217.316 418.454 224.427 418.454Z" fill="#2F2E41"/>
<path d="M205.111 350.859C214.711 350.859 222.493 343.077 222.493 333.477C222.493 323.877 214.711 316.095 205.111 316.095C195.511 316.095 187.729 323.877 187.729 333.477C187.729 343.077 195.511 350.859 205.111 350.859Z" fill="white"/>
<path d="M205.112 339.271C208.312 339.271 210.906 336.676 210.906 333.477C210.906 330.277 208.312 327.683 205.112 327.683C201.912 327.683 199.318 330.277 199.318 333.477C199.318 336.676 201.912 339.271 205.112 339.271Z" fill="#3F3D56"/>
<path d="M154.491 299.056C150.384 280.664 163.511 262.081 183.811 257.548C204.11 253.015 223.896 264.25 228.002 282.641C232.109 301.032 218.655 307.815 198.356 312.348C178.056 316.881 158.597 317.447 154.491 299.056Z" fill="#04536C"/>
<path d="M251.526 336.208C264.437 330.682 273.497 322.916 271.763 318.863C270.028 314.81 258.155 316.004 245.244 321.53C232.332 327.056 223.272 334.821 225.007 338.874C226.742 342.928 238.615 341.734 251.526 336.208Z" fill="#2F2E41"/>
<path d="M156.247 370.329C169.158 364.803 178.218 357.038 176.483 352.984C174.749 348.931 162.876 350.125 149.964 355.651C137.053 361.177 127.993 368.943 129.728 372.996C131.462 377.049 143.335 375.855 156.247 370.329Z" fill="#2F2E41"/>
<path d="M233.438 361.159C233.438 366.137 220.622 375.966 206.4 375.966C192.178 375.966 178.717 366.781 178.717 361.803C178.717 356.825 192.178 357.94 206.4 357.94C220.622 357.94 233.438 356.181 233.438 361.159Z" fill="white"/>
</g>
<defs>
<clipPath id="clip0_835_267">
<rect width="720.778" height="450" fill="white"/>
</clipPath>
</defs>
</svg>
