<svg width="130" height="130" viewBox="0 0 130 130" fill="none" xmlns="http://www.w3.org/2000/svg">
<path d="M65 8.125C53.7512 8.125 42.755 11.4607 33.402 17.7102C24.0489 23.9597 16.7591 32.8423 12.4544 43.2349C8.14964 53.6274 7.02333 65.0631 9.21786 76.0958C11.4124 87.1284 16.8292 97.2626 24.7833 105.217C32.7374 113.171 42.8716 118.588 53.9043 120.782C64.9369 122.977 76.3726 121.85 86.7651 117.546C97.1577 113.241 106.04 105.951 112.29 96.5981C118.539 87.245 121.875 76.2488 121.875 65C121.875 49.9158 115.883 35.4494 105.217 24.7833C94.5506 14.1172 80.0842 8.125 65 8.125ZM97.5 101.233V98.7634C97.6129 93.2238 95.5487 87.8609 91.7507 83.8266C87.9526 79.7924 82.7239 77.4087 77.1875 77.1875H52.8125C47.2808 77.4097 42.0575 79.7946 38.2663 83.8289C34.4751 87.8632 32.4191 93.2246 32.5407 98.7594C32.5407 98.8041 32.5 98.8488 32.5 98.8934V101.27C25.1303 94.6915 19.932 86.0301 17.5933 76.4321C15.2547 66.8342 15.8858 56.7523 19.4033 47.521C22.9208 38.2897 29.1587 30.3442 37.2914 24.7362C45.4241 19.1282 55.0681 16.1222 64.9468 16.116C74.8256 16.1099 84.4733 19.1038 92.613 24.7016C100.753 30.2994 107.001 38.2371 110.53 47.464C114.059 56.6909 114.702 66.772 112.376 76.3729C110.049 85.9737 104.862 94.6417 97.5 101.229V101.233Z" fill="#D4D5D6"/>
<path d="M65 28.4375C60.9826 28.4375 57.0554 29.6288 53.715 31.8608C50.3746 34.0927 47.7711 37.2651 46.2337 40.9767C44.6963 44.6884 44.294 48.7725 45.0778 52.7128C45.8616 56.653 47.7962 60.2724 50.6369 63.1131C53.4777 65.9539 57.097 67.8884 61.0372 68.6722C64.9775 69.456 69.0616 69.0537 72.7733 67.5163C76.4849 65.9789 79.6573 63.3754 81.8892 60.035C84.1212 56.6947 85.3125 52.7674 85.3125 48.75C85.3125 43.3628 83.1725 38.1962 79.3631 34.3869C75.5538 30.5776 70.3872 28.4375 65 28.4375Z" fill="#D4D5D6"/>
</svg>
