<svg width="620" height="500" viewBox="0 0 620 500" fill="none" xmlns="http://www.w3.org/2000/svg">
<g clip-path="url(#clip0_2841_3630)">
<path opacity="0.1" d="M318.863 500.006C473.572 500.006 598.988 388.076 598.988 250.003C598.988 111.93 473.572 0 318.863 0C164.155 0 38.7388 111.93 38.7388 250.003C38.7388 388.076 164.155 500.006 318.863 500.006Z" fill="#04536C"/>
<path opacity="0.1" d="M103.287 393.896C160.331 393.896 206.574 386.729 206.574 377.887C206.574 369.045 160.331 361.877 103.287 361.877C46.2432 361.877 0 369.045 0 377.887C0 386.729 46.2432 393.896 103.287 393.896Z" fill="#04536C"/>
<path opacity="0.1" d="M152.931 470.167C175.119 470.167 193.105 466.451 193.105 461.868C193.105 457.284 175.119 453.569 152.931 453.569C130.744 453.569 112.757 457.284 112.757 461.868C112.757 466.451 130.744 470.167 152.931 470.167Z" fill="#04536C"/>
<path opacity="0.1" d="M427.441 438.238C449.628 438.238 467.615 434.522 467.615 429.939C467.615 425.355 449.628 421.64 427.441 421.64C405.254 421.64 387.267 425.355 387.267 429.939C387.267 434.522 405.254 438.238 427.441 438.238Z" fill="#04536C"/>
<path opacity="0.1" d="M291.12 431.272C327.2 431.272 356.449 426.317 356.449 420.205C356.449 414.092 327.2 409.137 291.12 409.137C255.039 409.137 225.791 414.092 225.791 420.205C225.791 426.317 255.039 431.272 291.12 431.272Z" fill="#04536C"/>
<path opacity="0.1" d="M483.612 386.762C558.867 386.762 619.873 377.207 619.873 365.42C619.873 353.634 558.867 344.078 483.612 344.078C408.357 344.078 347.351 353.634 347.351 365.42C347.351 377.207 408.357 386.762 483.612 386.762Z" fill="#04536C"/>
<path d="M28.2417 328.171C25.1809 334.125 23.7513 340.784 24.0983 347.47C24.4454 354.157 26.5566 360.632 30.2174 366.237C31.4184 368.039 32.5233 369.336 33.4061 369.678C37.6396 371.341 46.1188 375.431 46.1188 375.431L66.536 367.408C66.536 367.408 69.8508 349.873 72.9855 334.819C75.1233 324.55 77.189 315.44 78.0358 313.843C80.1495 309.91 78.0358 267.087 78.0358 267.087C78.0358 267.087 57.6185 265.718 52.0038 281.458L49.5477 286.262L28.2417 328.171Z" fill="#A8A8A8"/>
<path opacity="0.1" d="M55.3486 332.903C67.7611 347.129 72.9975 334.825 72.9975 334.825C75.1353 324.556 77.2011 315.446 78.0478 313.849C80.1616 309.916 78.0478 267.094 78.0478 267.094C78.0478 267.094 57.6306 265.724 52.0158 281.464L49.5597 286.268C47.9864 298.86 46.4311 322.664 55.3486 332.903Z" fill="white"/>
<path d="M58.0752 372.554L130.136 364.231L142.993 279.632L133.271 257.659C129.163 248.302 123.475 239.721 116.456 232.294C111.562 227.136 105.647 222.175 99.4261 219.683C98.5759 219.341 97.7079 219.044 96.8259 218.795C95.8119 218.487 94.7396 218.422 93.6961 218.607C92.6526 218.792 91.6675 219.22 90.8208 219.857C81.9333 226.157 78.7567 252.939 77.7298 265.832C77.3073 271.13 76.5916 276.401 75.586 281.62L58.0752 372.554Z" fill="#A8A8A8"/>
<path opacity="0.1" d="M106.05 278.719L91.0369 315.65C98.9035 309.898 110.559 278.569 110.559 278.569L121.002 314.287L112.679 276.641C113.898 268.466 114.252 260.186 113.736 251.937C113.075 242.485 104.206 227.316 99.3899 219.677C98.5398 219.335 97.6718 219.038 96.7897 218.789C95.7758 218.481 94.7034 218.416 93.6599 218.601C92.6164 218.786 91.6313 219.214 90.7847 219.852C94.5679 227.448 104.026 246.442 106.908 252.087C110.565 259.197 106.05 278.719 106.05 278.719Z" fill="white"/>
<path d="M118.306 375.431H157.405C159.013 375.431 160.605 375.104 162.083 374.471C163.561 373.837 164.895 372.909 166.003 371.743C167.111 370.578 167.971 369.199 168.529 367.691C169.088 366.183 169.334 364.576 169.253 362.97C168.388 346.204 166.196 316.311 160.984 297.335C158.167 287.096 154.895 281.722 151.892 279.073C150.484 277.715 148.666 276.86 146.722 276.641C145.247 276.514 143.77 276.873 142.518 277.662C135.258 284.622 126.779 321.247 126.779 321.247L118.306 375.431Z" fill="#A8A8A8"/>
<path opacity="0.1" d="M154.402 342.949C156.011 347.411 156.648 352.558 154.402 357.572L145.689 361.877C145.689 361.877 122.269 351.951 125.115 331.606C125.115 331.606 125.884 327.402 133.949 327.727C138.484 327.946 142.852 329.511 146.495 332.222C150.137 334.933 152.89 338.668 154.402 342.949Z" fill="white"/>
<path opacity="0.1" d="M145.095 289.468C144.824 282.334 148.698 279.86 151.898 279.073C150.49 277.715 148.673 276.86 146.728 276.641C144.5 278.506 142.921 281.029 142.218 283.847L134.051 323.655C134.051 323.655 145.551 301.424 145.095 289.468Z" fill="white"/>
<path d="M108.019 320.947L127.38 347.429L130.736 369.288L118.294 375.431L100.357 379.394C98.6293 379.778 96.853 379.893 95.0904 379.736L46.1431 375.431L52.8027 359.992L75.8021 327.702L108.019 320.947Z" fill="#A8A8A8"/>
<path opacity="0.1" d="M100.525 311.855C100.525 311.855 113.736 312.762 108.776 335.461C103.815 358.16 52.7783 359.98 52.7783 359.98C52.7783 359.98 63.6235 340.764 80.3055 326.994C82.1791 325.451 83.9867 323.841 85.7101 322.124C89.5473 318.287 96.8855 311.543 100.525 311.855Z" fill="white"/>
<path opacity="0.1" d="M112.409 328.97C112.409 328.97 130.31 345.261 128.623 370.333L112.409 328.97Z" fill="black"/>
<path opacity="0.1" d="M142.524 277.662C142.524 277.662 123.741 302.643 121.633 341.082L142.524 277.662Z" fill="black"/>
<path opacity="0.1" d="M78.0538 267.075C78.0538 267.075 87.1454 308.36 64.4463 339.479L78.0538 267.075Z" fill="black"/>
<path d="M243.644 419.976H341.61C342.557 419.971 343.487 419.721 344.309 419.251C345.13 418.78 345.816 418.105 346.3 417.291C346.784 416.476 347.048 415.551 347.068 414.604C347.088 413.657 346.863 412.722 346.415 411.888L297.455 320.923C296.986 320.051 296.289 319.322 295.439 318.814C294.589 318.306 293.617 318.038 292.627 318.038C291.637 318.038 290.665 318.306 289.815 318.814C288.965 319.322 288.268 320.051 287.799 320.923L238.816 411.888C238.366 412.723 238.141 413.661 238.162 414.61C238.183 415.559 238.45 416.486 238.936 417.301C239.423 418.116 240.112 418.791 240.937 419.259C241.762 419.728 242.695 419.975 243.644 419.976ZM298.86 403.354H286.394V390.894H298.86V403.354ZM298.86 382.583H286.394V357.656H298.86V382.583Z" fill="#464353"/>
<path opacity="0.1" d="M243.644 419.976H341.61C342.557 419.971 343.487 419.721 344.309 419.251C345.13 418.78 345.816 418.105 346.3 417.291C346.784 416.476 347.048 415.551 347.068 414.604C347.088 413.657 346.863 412.722 346.415 411.888L297.455 320.923C296.986 320.051 296.289 319.322 295.439 318.814C294.589 318.306 293.617 318.038 292.627 318.038C291.637 318.038 290.665 318.306 289.815 318.814C288.965 319.322 288.268 320.051 287.799 320.923L238.816 411.888C238.366 412.723 238.141 413.661 238.162 414.61C238.183 415.559 238.45 416.486 238.936 417.301C239.423 418.116 240.112 418.791 240.937 419.259C241.762 419.728 242.695 419.975 243.644 419.976ZM298.86 403.354H286.394V390.894H298.86V403.354ZM298.86 382.583H286.394V357.656H298.86V382.583Z" fill="black"/>
<path d="M243.644 422.979H341.61C342.557 422.974 343.487 422.724 344.309 422.253C345.13 421.783 345.816 421.107 346.3 420.293C346.784 419.479 347.048 418.553 347.068 417.607C347.088 416.66 346.863 415.724 346.415 414.89L297.455 323.925C296.986 323.053 296.289 322.325 295.439 321.817C294.589 321.309 293.617 321.041 292.627 321.041C291.637 321.041 290.665 321.309 289.815 321.817C288.965 322.325 288.268 323.053 287.799 323.925L238.816 414.89C238.366 415.726 238.141 416.664 238.162 417.613C238.183 418.561 238.45 419.488 238.936 420.303C239.423 421.118 240.112 421.793 240.937 422.262C241.762 422.731 242.695 422.978 243.644 422.979ZM298.86 406.357H286.394V393.896H298.86V406.357ZM298.86 385.585H286.394V360.658H298.86V385.585Z" fill="#464353"/>
<path d="M140.405 142.152C140.339 143.407 140.963 144.554 141.329 145.755C141.935 148.075 141.875 150.518 141.155 152.805C140.483 155.207 139.354 157.747 140.212 160.095C140.411 160.648 140.711 161.152 140.891 161.704C141.636 163.986 140.254 166.388 138.741 168.256L144.68 172.417C145.547 173.136 146.579 173.629 147.683 173.853C148.794 173.985 150.085 173.39 150.313 172.297C150.391 171.925 150.313 171.535 150.385 171.156C150.458 170.667 150.647 170.203 150.937 169.801C151.226 169.4 151.607 169.074 152.048 168.85C152.94 168.413 153.935 168.228 154.925 168.316C158.57 168.514 161.669 170.91 164.983 172.448C167.169 173.394 169.433 174.145 171.751 174.693C173.066 175.036 174.525 175.348 175.714 174.693C176.903 174.039 177.45 172.52 177.36 171.144C177.175 169.777 176.748 168.453 176.099 167.235C175.443 166.019 175.049 164.679 174.94 163.302C174.94 161.284 176.045 159.447 176.417 157.465C176.939 154.648 175.877 151.784 174.579 149.226C173.282 146.668 171.709 144.206 171.078 141.419C170.953 140.575 170.734 139.747 170.424 138.951C170.123 138.347 169.717 137.802 169.223 137.342C166.995 135.138 163.818 134.093 160.708 133.865C157.597 133.637 154.456 134.147 151.37 134.682C150.192 134.85 149.032 135.125 147.905 135.504C146.294 136.145 144.764 136.973 143.347 137.972C141.942 138.945 140.495 140.368 140.405 142.152Z" fill="#464353"/>
<g opacity="0.1">
<path opacity="0.1" d="M174.922 162.071C174.922 162.251 174.922 162.431 174.958 162.605C175.144 160.846 176.069 159.194 176.399 157.435C176.527 156.73 176.565 156.012 176.513 155.297C176.513 155.609 176.453 155.898 176.399 156.234C176.021 158.216 174.898 160.053 174.922 162.071Z" fill="black"/>
<path opacity="0.1" d="M141.732 148.157C141.803 146.942 141.667 145.724 141.33 144.554C140.974 143.643 140.683 142.708 140.459 141.756C140.459 141.882 140.411 142.002 140.405 142.128C140.339 143.383 140.963 144.53 141.33 145.731C141.562 146.52 141.697 147.335 141.732 148.157Z" fill="black"/>
<path opacity="0.1" d="M177.306 170.814C177.264 171.351 177.096 171.87 176.817 172.33C176.537 172.79 176.153 173.178 175.696 173.462C174.495 174.117 173.048 173.805 171.733 173.462C169.414 172.915 167.15 172.161 164.965 171.21C161.65 169.679 158.552 167.283 154.907 167.085C153.917 166.997 152.922 167.182 152.03 167.619C151.589 167.843 151.208 168.169 150.919 168.57C150.629 168.972 150.44 169.436 150.367 169.925C150.325 170.304 150.367 170.694 150.295 171.066C150.061 172.159 148.776 172.754 147.665 172.622C146.561 172.398 145.529 171.905 144.662 171.186L139.324 167.439C139.125 167.71 138.927 167.974 138.723 168.22L144.662 172.387C145.529 173.106 146.561 173.599 147.665 173.823C148.776 173.955 150.067 173.36 150.295 172.267C150.373 171.895 150.295 171.505 150.367 171.126C150.44 170.637 150.629 170.173 150.919 169.771C151.208 169.37 151.589 169.044 152.03 168.82C152.922 168.383 153.917 168.198 154.907 168.286C158.552 168.484 161.65 170.88 164.965 172.412C167.15 173.362 169.414 174.116 171.733 174.663C173.048 175.006 174.507 175.318 175.696 174.663C176.885 174.009 177.432 172.49 177.342 171.114C177.336 171.012 177.318 170.916 177.306 170.814Z" fill="black"/>
<path opacity="0.1" d="M140.891 161.674C140.965 161.916 141.019 162.163 141.053 162.413C141.146 161.763 141.091 161.1 140.891 160.473C140.711 159.921 140.411 159.417 140.212 158.864C140.068 158.463 139.975 158.045 139.936 157.621C139.847 158.446 139.942 159.281 140.212 160.065C140.411 160.618 140.711 161.128 140.891 161.674Z" fill="black"/>
</g>
<path d="M147.941 389.537C147.9 389.708 147.802 389.86 147.665 389.969C147.518 390.045 147.355 390.08 147.19 390.071C145.052 390.119 142.915 390.071 140.783 390.221C138.765 390.395 136.741 390.822 134.73 390.594C134.086 390.616 133.451 390.438 132.913 390.085C132.375 389.731 131.961 389.218 131.727 388.618C131.6 388.356 131.488 388.088 131.391 387.813C130.837 386.398 130.557 384.89 130.568 383.37C130.568 382.967 130.568 382.577 130.568 382.169C130.542 381.729 130.484 381.291 130.394 380.859C130.212 380.365 130.233 379.819 130.454 379.34C131.307 377.785 133.367 377.473 134.952 377.352C138.625 377.076 142.318 377.347 145.911 378.157C146.193 379.538 146.512 380.907 146.848 382.277C147.096 383.281 147.36 384.282 147.641 385.279C147.829 385.896 147.981 386.524 148.097 387.159C148.245 387.952 148.192 388.77 147.941 389.537Z" fill="#464353"/>
<path opacity="0.06" d="M147.941 389.537C147.9 389.708 147.803 389.86 147.665 389.969C147.519 390.045 147.355 390.08 147.19 390.071C145.053 390.119 142.915 390.071 140.783 390.221C138.765 390.395 136.742 390.822 134.73 390.594C134.086 390.616 133.452 390.438 132.914 390.084C132.376 389.73 131.961 389.218 131.727 388.618C131.6 388.356 131.488 388.087 131.391 387.813H132.16C134.688 387.813 137.222 387.723 139.75 387.723C140.513 387.723 141.281 387.687 142.038 387.597C142.795 387.507 143.413 387.381 144.104 387.297C145.138 387.198 146.176 387.156 147.214 387.171H148.067C148.223 387.958 148.18 388.771 147.941 389.537Z" fill="black"/>
<path d="M192.168 378.385C191.499 379.167 190.644 379.768 189.682 380.133C185.406 381.934 180.464 381.124 176.05 379.658C175.063 379.292 174.049 379.001 173.018 378.788C172.077 378.656 171.128 378.589 170.177 378.589C169.499 378.589 168.82 378.535 168.142 378.493C166.424 378.385 164.713 378.217 163.007 378.049C161.818 377.962 160.638 377.783 159.476 377.515C159.146 377.43 158.829 377.301 158.534 377.13C158.282 377.02 158.066 376.839 157.913 376.611C157.76 376.382 157.675 376.114 157.669 375.839C157.717 375.076 158.51 374.638 159.206 374.308C165.385 371.636 172.099 370.477 178.765 369.546C179.443 369.433 180.103 369.231 180.728 368.945C181.479 368.645 181.557 369.137 181.929 369.69C182.105 369.946 182.307 370.183 182.53 370.399C183.254 371.052 184.104 371.551 185.028 371.864C186.649 372.464 188.385 372.626 190.006 373.197C190.497 373.367 190.966 373.593 191.405 373.869C191.793 374.081 192.127 374.378 192.383 374.738C192.638 375.098 192.807 375.512 192.878 375.948C192.949 376.384 192.919 376.83 192.791 377.252C192.662 377.675 192.439 378.062 192.138 378.385H192.168Z" fill="#464353"/>
<path opacity="0.06" d="M192.168 378.385C191.499 379.167 190.644 379.768 189.682 380.133C185.407 381.934 180.464 381.124 176.051 379.658C175.063 379.292 174.05 379.001 173.018 378.788C172.077 378.656 171.128 378.589 170.178 378.59C169.499 378.59 168.821 378.536 168.142 378.494C168.695 377.971 169.259 377.461 169.836 376.968C170.253 376.578 170.735 376.261 171.259 376.031C171.911 375.817 172.607 375.77 173.282 375.893C176.717 376.368 179.804 378.776 183.269 378.566C184.883 378.38 186.445 377.876 187.863 377.082C189.016 376.613 190.044 375.881 190.865 374.945C191.113 374.622 191.302 374.258 191.424 373.87C191.811 374.081 192.146 374.378 192.401 374.738C192.656 375.098 192.826 375.512 192.896 375.948C192.967 376.384 192.937 376.83 192.809 377.253C192.681 377.675 192.457 378.062 192.156 378.385H192.168Z" fill="black"/>
<path d="M190.961 274.023C190.361 275.224 189.592 276.527 188.295 276.9C186.409 277.44 184.596 275.747 183.773 273.969C182.652 271.36 182.44 268.45 183.173 265.706C183.515 264.319 184.037 262.986 184.332 261.593C184.544 260.421 184.673 259.235 184.716 258.044C184.894 256.268 184.851 254.477 184.59 252.711C183.623 247.553 179.185 243.704 177.708 238.636C176.964 236.107 177 233.417 177.042 230.781C177.028 230.114 177.096 229.449 177.246 228.799C177.29 228.622 177.351 228.449 177.426 228.283C178.417 226.085 181.353 225.785 183.395 224.506C184.524 223.803 187.088 221.539 188.037 223.605C188.242 224.065 188.395 224.546 188.493 225.04C188.884 226.878 188.727 229.033 188.824 230.769C189.19 237.326 190.823 243.872 190.067 250.393C189.886 251.505 189.798 252.63 189.802 253.756C189.964 256.579 191.73 259.023 192.541 261.725C193.79 265.79 192.787 270.216 190.961 274.023Z" fill="#FBBEBE"/>
<path opacity="0.1" d="M188.523 225.052C188.077 224.89 187.588 224.89 187.142 225.052L183.077 226.253C181.652 226.633 180.264 227.137 178.927 227.76C178.344 228.046 177.791 228.39 177.276 228.787C177.321 228.61 177.381 228.437 177.456 228.271C178.447 226.073 181.383 225.772 183.425 224.493C184.554 223.791 187.118 221.527 188.067 223.593C188.274 224.06 188.427 224.55 188.523 225.052Z" fill="black"/>
<path d="M188.788 224.596C188.543 224.447 188.266 224.357 187.98 224.334C187.695 224.312 187.408 224.356 187.142 224.464L183.077 225.665C181.652 226.045 180.264 226.549 178.927 227.172C178.218 227.517 177.554 227.949 176.952 228.457C175.054 225.16 174.549 221.251 174.201 217.468C174.009 215.264 173.865 213.054 173.781 210.862C173.687 209.285 173.719 207.702 173.877 206.13C174.105 204.329 174.628 202.569 174.952 200.78C175.145 199.732 175.269 198.673 175.324 197.609C175.48 195.284 175.373 192.95 175.006 190.649C174.657 188.204 174.098 185.793 173.336 183.443C172.952 182.368 172.49 181.329 172.069 180.272L171.925 179.9C171.166 177.963 170.546 175.974 170.07 173.949C169.878 173.12 169.866 172.25 169.229 171.685C169.827 171.613 170.429 171.589 171.031 171.613C171.151 171.613 171.271 171.613 171.391 171.613C173.858 171.768 176.234 172.599 178.261 174.015C180.87 175.898 182.854 178.521 183.953 181.545C185.22 184.926 185.431 188.601 185.593 192.21C185.917 199.304 186.117 206.402 186.193 213.504C186.193 214.867 186.253 216.321 187.034 217.444C187.253 217.72 187.454 218.011 187.635 218.314C187.917 218.915 187.875 219.581 188.103 220.188C188.271 220.552 188.461 220.905 188.673 221.245C188.942 221.759 189.092 222.327 189.112 222.907C189.132 223.487 189.021 224.064 188.788 224.596Z" fill="#464353"/>
<path d="M148.818 154.108C148.217 153.91 147.617 153.7 147.016 153.508L148.265 153.604C148.473 153.743 148.66 153.913 148.818 154.108Z" fill="#FBBEBE"/>
<path d="M173.408 175.78C173.288 176.189 173.168 176.597 173.036 176.981C172.731 177.968 172.36 178.933 171.925 179.87C171.244 181.409 170.281 182.806 169.084 183.989C168.689 184.405 168.205 184.726 167.667 184.926C167.213 185.043 166.743 185.087 166.274 185.058C164.673 185.058 163.071 185.034 161.47 184.986C160.223 185 158.979 184.877 157.759 184.62C156.416 184.254 155.139 183.678 153.976 182.914C149.49 180.14 145.803 175.913 144.223 170.904C144.025 170.268 143.887 169.505 144.326 169.007C144.757 168.655 145.3 168.469 145.857 168.484H145.929C147.22 168.316 148.464 167.889 149.586 167.229C150.313 166.857 150.899 166.258 151.255 165.524C151.499 164.653 151.48 163.73 151.201 162.87L149.868 156.816C149.729 155.847 149.365 154.924 148.805 154.12C149.196 154.258 149.586 154.384 150.006 154.492C153.717 155.495 157.777 154.889 161.416 156.204C162.809 156.714 164.202 157.633 164.623 159.062C165.325 161.464 162.977 163.956 163.65 166.358C164.1 167.992 165.764 168.935 167.253 169.697L168.256 170.208L171.036 171.619L171.42 171.811L171.48 171.841C172.357 172.285 173.282 172.838 173.588 173.781C173.719 174.451 173.656 175.144 173.408 175.78Z" fill="#FBBEBE"/>
<path opacity="0.1" d="M180.734 189.88C180.633 191.415 180.258 192.92 179.629 194.324C178.424 196.752 177.777 199.42 177.738 202.13C177.275 210.237 174.195 219.887 178.608 226.697C178.717 226.865 178.825 227.034 178.927 227.208C178.218 227.553 177.554 227.984 176.951 228.493C175.053 225.196 174.549 221.287 174.201 217.503C174.009 215.3 173.864 213.09 173.78 210.898C173.686 209.321 173.718 207.738 173.877 206.166C174.105 204.364 174.627 202.605 174.951 200.815C175.145 199.768 175.269 198.709 175.324 197.645C175.479 195.32 175.373 192.985 175.005 190.685C174.656 188.239 174.098 185.829 173.336 183.479C172.952 182.404 172.489 181.365 172.069 180.308L171.925 179.936C171.244 181.475 170.281 182.872 169.084 184.055C168.689 184.471 168.205 184.792 167.667 184.992C167.213 185.108 166.743 185.153 166.274 185.124C164.673 185.124 163.071 185.1 161.47 185.052C160.223 185.066 158.979 184.943 157.759 184.686C156.416 184.319 155.139 183.744 153.976 182.98C149.49 180.206 145.803 175.978 144.223 170.97C144.025 170.334 143.887 169.571 144.326 169.073C144.757 168.721 145.3 168.535 145.857 168.55H145.929L151.334 175.234C151.953 175.941 152.478 176.727 152.895 177.57C152.975 177.853 153.144 178.103 153.375 178.284C153.563 178.37 153.77 178.407 153.976 178.392C159.05 178.392 165.812 178.392 170.886 178.392C170.903 177.493 170.643 176.611 170.141 175.864C169.985 175.9 169.775 175.912 170.099 175.816C169.806 173.867 169.176 171.983 168.238 170.25C168.182 170.13 168.12 170.014 168.052 169.901C167.648 169.307 167.348 168.649 167.163 167.956C167.804 167.751 168.492 167.751 169.133 167.956C169.871 168.274 170.255 169.073 170.58 169.811C170.856 170.412 171.132 171.054 171.378 171.685C171.378 171.751 171.438 171.823 171.462 171.889C171.986 173.131 172.322 174.445 172.459 175.786C172.495 176.279 172.615 176.903 173.024 177.065C173.088 177.095 173.157 177.111 173.228 177.113C173.651 176.959 174.11 176.933 174.547 177.04C174.985 177.147 175.38 177.382 175.684 177.714C176.275 178.391 176.688 179.204 176.885 180.08C177.08 180.956 177.366 181.809 177.738 182.626C178.512 184.103 177.329 184.764 178.729 185.671C179.383 186.031 179.946 186.536 180.374 187.148C180.77 188.001 180.895 188.954 180.734 189.88Z" fill="black"/>
<path opacity="0.1" d="M145.857 378.181C146.14 379.562 146.458 380.931 146.794 382.301L146.758 382.385C144.014 381.184 141.203 379.929 138.207 379.664C135.427 379.424 132.406 380.175 130.514 382.192C130.488 381.752 130.43 381.315 130.34 380.883C130.158 380.389 130.18 379.843 130.4 379.364C131.253 377.809 133.313 377.497 134.898 377.376C138.571 377.1 142.264 377.371 145.857 378.181Z" fill="black"/>
<path opacity="0.1" d="M169.511 176.963C169.794 176.963 169.691 176.963 169.553 177.011C169.415 177.059 169.187 177.059 169.511 176.963Z" fill="black"/>
<path opacity="0.1" d="M182.56 370.399C179.882 372.105 177.365 374.053 175.042 376.217C174.367 376.94 173.562 377.528 172.67 377.953C171.748 378.25 170.774 378.35 169.811 378.247C166.034 378.094 162.268 377.721 158.534 377.13C158.282 377.02 158.066 376.839 157.913 376.611C157.76 376.382 157.675 376.114 157.669 375.839C157.717 375.076 158.51 374.638 159.206 374.308C165.385 371.636 172.099 370.477 178.765 369.546C179.443 369.433 180.103 369.231 180.728 368.945C181.479 368.645 181.557 369.137 181.929 369.69C182.115 369.947 182.326 370.185 182.56 370.399Z" fill="black"/>
<path d="M138.501 169.998C139.384 170.784 140.393 171.421 141.287 172.183C143.689 174.219 145.203 177.066 146.692 179.84C145.809 180.159 144.854 180.224 143.935 180.026C143.463 182.69 143.543 185.423 144.17 188.055C142.968 188.879 142.035 190.038 141.485 191.388C141.059 192.757 140.765 194.165 140.609 195.591C139.744 201.84 138.875 208.09 138.002 214.339C137.985 214.951 137.775 215.541 137.402 216.026C137.235 216.161 137.082 216.312 136.946 216.477C136.762 216.881 136.689 217.327 136.735 217.768C136.699 218.206 136.411 218.729 135.973 218.669C135.76 218.618 135.571 218.495 135.438 218.32C135 217.856 134.598 217.358 134.237 216.831C130.694 223.629 128.989 230.955 127.115 238.389C125.776 243.686 124.437 249.042 124.371 254.507C124.389 257.092 124.551 259.674 124.857 262.241L125.386 267.514C125.812 271.753 126.239 275.999 126.701 280.239C127.001 282.929 127.301 285.643 128.268 288.177C129.709 292.027 128.112 296.368 128.725 300.44C129.205 303.628 130.16 306.925 129.199 310C128.815 311.231 128.142 312.354 127.638 313.543C126.401 316.497 126.275 319.782 126.167 322.983C125.972 325.788 126.077 328.606 126.479 331.39C126.995 334.266 128.154 337.083 127.926 339.989C127.608 344.127 124.557 347.664 124.185 351.795C123.891 355.092 125.338 358.274 126.893 361.199C128.04 363.355 126.443 366.141 125.836 368.513C124.635 373.161 126.635 378.025 129.085 382.151C129.147 382.292 129.258 382.407 129.397 382.475C129.679 382.577 129.932 382.301 130.118 382.067C131.961 379.701 135.228 378.806 138.225 379.064C141.221 379.322 144.026 380.559 146.776 381.784L150.673 373.107C151.334 371.636 152.006 370.044 151.676 368.465C151.442 367.336 150.715 366.381 150.199 365.348C148.998 362.91 148.938 360.07 148.926 357.338L148.854 341.905C151.892 338.085 153.748 333.546 154.919 328.802C156.715 335.474 156.839 342.487 155.279 349.219C154.99 350.237 154.79 351.277 154.679 352.329C154.444 356.611 157.801 360.232 158.696 364.424C158.783 364.744 158.807 365.079 158.768 365.408C158.667 365.814 158.499 366.2 158.27 366.549C156.66 369.468 156.834 373.005 157.069 376.332C161.28 377.065 165.534 377.52 169.805 377.695C170.768 377.791 171.741 377.691 172.664 377.401C173.557 376.974 174.361 376.383 175.036 375.659C177.762 373.095 180.756 370.83 183.965 368.903C182.173 365.93 179.665 363.452 176.669 361.697C177.636 360.274 179.84 360.388 181.125 359.247C181.77 358.609 182.191 357.779 182.326 356.881C182.806 354.527 182.212 352.077 181.617 349.765C180.464 345.213 179.305 340.644 177.414 336.344C176.558 334.577 175.804 332.762 175.156 330.909C173.583 325.733 174.681 320.1 173.492 314.81C173.108 313.116 172.49 311.369 172.922 309.681C173.583 307.081 176.525 305.538 177.174 302.932C179.498 293.654 179.912 284.04 181.233 274.57C181.528 272.761 181.687 270.932 181.707 269.099C181.707 267.184 181.365 265.286 181.227 263.376C180.687 255.732 183.131 248.106 182.506 240.467C182.106 235.76 180.555 231.223 177.99 227.256C173.576 220.44 176.657 210.796 177.119 202.689C177.154 199.978 177.799 197.31 179.005 194.883C179.639 193.48 180.016 191.975 180.116 190.439C180.301 189.492 180.184 188.511 179.78 187.634C179.357 187.02 178.795 186.514 178.14 186.157C176.741 185.244 177.924 184.584 177.15 183.107C176.777 182.29 176.491 181.437 176.297 180.561C176.1 179.686 175.687 178.874 175.096 178.201C174.792 177.868 174.396 177.634 173.959 177.527C173.522 177.42 173.062 177.445 172.64 177.6C172.069 177.6 171.913 176.843 171.865 176.273C171.703 174.183 170.838 172.219 169.991 170.298C169.667 169.559 169.283 168.761 168.544 168.442C167.901 168.241 167.212 168.241 166.569 168.442C166.755 169.139 167.057 169.799 167.463 170.394C168.504 172.22 169.197 174.224 169.505 176.303C168.905 176.483 170.106 176.303 169.505 176.303C170.043 177.052 170.319 177.957 170.292 178.879C165.223 178.879 158.462 178.879 153.387 178.879C153.181 178.895 152.974 178.858 152.787 178.771C152.556 178.588 152.386 178.339 152.301 178.056C151.888 177.213 151.362 176.429 150.739 175.726L144.794 168.394C144.662 168.203 144.487 168.044 144.284 167.932C144.038 167.863 143.779 167.863 143.533 167.932C141.606 168.214 140.182 169.019 138.501 169.998Z" fill="#04536C"/>
<path opacity="0.1" d="M159.837 269.345C160.862 269.331 161.872 269.593 162.761 270.102C163.203 270.362 163.569 270.732 163.824 271.176C164.078 271.621 164.213 272.124 164.214 272.636C164.148 273.771 163.278 274.672 162.647 275.639C162.257 276.228 161.946 276.866 161.722 277.536C161.653 277.689 161.636 277.86 161.674 278.023C161.746 278.251 161.992 278.365 162.203 278.467C162.967 278.812 163.619 279.364 164.087 280.06C164.555 280.756 164.819 281.568 164.851 282.406C164.797 284.748 162.509 286.646 162.635 289.012C162.692 289.505 162.776 289.994 162.887 290.477C163.162 292.494 162.882 294.547 162.077 296.416C161.35 298.302 160.359 300.073 159.578 301.941C157.471 307.015 157.014 312.636 157.176 318.154C157.303 321.902 155.975 325.469 154.774 329.036C155.453 321.851 155.634 314.627 155.315 307.417C155.231 305.46 154.985 303.61 155.075 301.647C155.219 298.53 156.96 295.696 157.405 292.639C157.657 290.891 157.489 289.114 157.531 287.348C157.615 283.745 158.594 280.19 158.66 276.575C158.744 274.023 158.51 271.393 159.837 269.345Z" fill="black"/>
<path d="M134.778 171.282C133.584 171.878 132.467 172.616 131.451 173.48C130.389 174.535 129.502 175.751 128.821 177.083C127.991 178.594 127.248 180.149 126.593 181.743C125.746 183.809 125.043 186.097 125.626 188.253C126.154 190.204 127.65 191.724 128.683 193.459C129.715 195.195 130.322 197.23 131.115 199.134C132.171 201.674 133.619 204.04 134.664 206.586C135.708 209.132 136.339 211.991 135.678 214.639C135.486 215.42 134.219 216.026 134.219 216.825C134.219 218.146 136.129 219.581 137.396 219.966C138.855 220.416 140.446 219.743 141.641 218.765C143.833 217.029 145.166 214.429 146.151 211.811C147.737 207.607 148.583 203.145 149.346 198.714C149.898 195.459 150.415 192.198 150.709 188.919C150.979 185.965 151.063 182.914 150.283 180.08C149.554 177.478 148.137 175.122 146.181 173.258C144.62 171.757 142.062 169.739 139.792 169.685C137.996 169.679 136.315 170.436 134.778 171.282Z" fill="#464353"/>
<path d="M151.85 243.674C151.785 244.084 151.631 244.475 151.4 244.821C151.169 245.166 150.865 245.457 150.511 245.673C149.802 246.104 149.03 246.42 148.223 246.61C146.614 247.079 144.908 247.511 143.281 247.097C142.002 246.68 140.821 246.008 139.81 245.121L121.626 231.201C120.166 230.166 118.823 228.974 117.621 227.646C116.931 226.789 116.297 225.889 115.723 224.95C114.964 223.875 114.369 222.693 113.958 221.443C113.811 220.893 113.739 220.325 113.742 219.756C113.737 219.217 113.869 218.686 114.126 218.212C114.565 217.48 115.501 217.329 116.27 217.125C118.85 216.458 121.528 216.255 124.179 216.525C124.412 216.514 124.642 216.578 124.834 216.71C125.027 216.841 125.172 217.031 125.248 217.251C125.65 217.99 125.998 218.759 126.358 219.527C126.911 220.838 127.632 222.071 128.502 223.196C129.341 224.108 130.233 224.968 131.175 225.773C133.096 227.574 134.669 229.736 136.717 231.393C139.089 233.309 141.972 234.456 144.674 235.867C147.376 237.278 150.042 239.11 151.4 241.842C151.714 242.4 151.87 243.033 151.85 243.674Z" fill="#FBBEBE"/>
<path opacity="0.1" d="M172.898 146.56C172.898 150.351 171.451 153.999 168.851 156.759C166.251 159.518 162.695 161.18 158.91 161.405C155.126 161.63 151.398 160.4 148.49 157.968C145.582 155.535 143.713 152.084 143.265 148.319C142.817 144.554 143.824 140.76 146.08 137.714C148.337 134.667 151.672 132.597 155.404 131.928C159.135 131.258 162.982 132.039 166.157 134.112C169.331 136.184 171.595 139.391 172.483 143.077C172.759 144.217 172.898 145.386 172.898 146.56Z" fill="black"/>
<path d="M172.898 145.959C172.898 149.75 171.451 153.399 168.851 156.158C166.251 158.918 162.695 160.58 158.91 160.804C155.126 161.029 151.398 159.799 148.49 157.367C145.582 154.935 143.713 151.483 143.265 147.718C142.817 143.954 143.824 140.16 146.08 137.113C148.337 134.066 151.672 131.996 155.404 131.327C159.135 130.657 162.982 131.439 166.157 133.511C169.331 135.584 171.595 138.791 172.483 142.476C172.759 143.617 172.898 144.786 172.898 145.959Z" fill="#FBBEBE"/>
<path opacity="0.1" d="M126.358 219.503C125.674 219.942 124.659 219.798 123.812 219.605C120.474 218.861 116.786 218.326 113.742 219.756C113.737 219.217 113.869 218.686 114.126 218.212C114.565 217.48 115.501 217.329 116.27 217.125C118.85 216.458 121.528 216.255 124.179 216.525C124.412 216.514 124.642 216.578 124.834 216.71C125.027 216.841 125.172 217.031 125.248 217.251C125.65 217.966 125.998 218.735 126.358 219.503Z" fill="black"/>
<path d="M120.083 199.284C119.345 201.686 118.738 204.154 117.291 206.19C116.812 206.725 116.452 207.356 116.234 208.04C116.218 208.545 116.135 209.045 115.988 209.529C115.784 209.937 115.351 210.207 115.177 210.628C114.919 211.228 115.255 212.003 114.913 212.567C114.753 212.794 114.561 212.996 114.342 213.168C113.526 213.925 113.322 215.132 113.304 216.249C113.286 217.366 113.394 218.507 113.027 219.557C116.198 217.666 120.233 218.23 123.836 219.035C124.839 219.257 126.082 219.425 126.731 218.621C127.379 217.816 127.007 216.759 127.097 215.792C127.217 214.531 128.082 213.486 128.616 212.339C129.217 211.048 129.421 209.607 129.884 208.262C130.838 205.433 132.886 203.128 134.201 200.455C134.688 199.536 134.978 198.526 135.054 197.489C135.009 196.144 134.657 194.828 134.027 193.64C132.777 190.872 131.291 188.218 129.583 185.707C128.821 184.584 127.506 182.506 126.323 184.302C125.362 185.749 124.761 187.592 124.053 189.178C122.526 192.463 121.2 195.838 120.083 199.284Z" fill="#464353"/>
<path d="M174.267 175.972C172.464 176.097 170.656 175.817 168.975 175.153C167.294 174.489 165.783 173.458 164.551 172.135C164.344 171.946 164.194 171.703 164.119 171.433C164.084 171.081 164.183 170.73 164.395 170.448C165.116 169.337 166.359 168.604 166.935 167.409C167.512 166.214 167.313 164.839 167.368 163.53C167.464 161.182 168.388 158.858 168.466 156.546C168.494 155.954 168.45 155.362 168.334 154.781C168.058 153.918 167.889 153.024 167.83 152.12C167.908 150.361 169.493 148.992 169.758 147.256C170.1 145.046 168.268 143.125 166.425 141.852C165.019 140.877 163.493 140.088 161.885 139.504C160.897 139.15 159.875 138.902 158.834 138.765C156.895 138.503 154.921 138.724 153.087 139.408C152.329 139.694 151.61 140.077 150.95 140.549C150.556 140.797 150.229 141.137 149.995 141.539C149.802 141.992 149.716 142.483 149.743 142.975C149.707 145.431 149.983 148.043 148.812 150.181C148.211 151.328 147.191 152.258 146.692 153.471C146.488 153.976 146.361 154.508 146.314 155.051C146.254 155.613 146.224 156.179 146.224 156.744C146.188 159.909 146.224 163.248 147.833 165.992C148.401 166.822 148.916 167.686 149.376 168.58C149.599 169.032 149.703 169.534 149.676 170.038C149.65 170.542 149.495 171.03 149.226 171.457C148.901 171.846 148.49 172.154 148.025 172.357C146.833 172.93 145.535 173.249 144.214 173.297C142.892 173.344 141.575 173.119 140.345 172.634C141.783 171.27 142.772 169.5 143.177 167.56C143.583 165.62 143.387 163.602 142.615 161.776C142.181 161.039 141.899 160.222 141.786 159.374C141.846 158.611 142.05 157.865 142.386 157.177C143.21 154.92 143.337 152.468 142.753 150.139C142.386 148.709 141.75 147.328 141.636 145.857C141.541 144.747 141.589 143.628 141.78 142.53C142.109 140.566 142.975 138.73 144.281 137.226C145.588 135.723 147.285 134.609 149.184 134.009C149.49 133.907 149.785 133.811 150.121 133.727C151.578 133.403 153.066 133.244 154.559 133.252C157.892 133.144 161.272 133.048 164.485 133.919C166.371 134.413 168.126 135.315 169.625 136.561C170.69 137.456 171.539 138.579 172.112 139.846C172.424 140.576 172.66 141.337 172.814 142.116C172.952 142.758 173.054 143.407 173.156 144.056C173.883 148.673 174.61 153.381 173.835 157.993C173.529 159.795 172.994 161.596 172.754 163.434C172.172 167.667 173.222 171.877 174.267 175.972Z" fill="#464353"/>
<path d="M152.931 181.906C153.548 181.906 154.048 181.405 154.048 180.789C154.048 180.172 153.548 179.672 152.931 179.672C152.314 179.672 151.814 180.172 151.814 180.789C151.814 181.405 152.314 181.906 152.931 181.906Z" fill="white"/>
<path d="M171.781 181.377C172.398 181.377 172.898 180.877 172.898 180.26C172.898 179.643 172.398 179.143 171.781 179.143C171.164 179.143 170.664 179.643 170.664 180.26C170.664 180.877 171.164 181.377 171.781 181.377Z" fill="white"/>
<path opacity="0.1" d="M152.931 124.341L150.529 119.807C150.681 119.626 150.848 119.457 151.027 119.303C151.374 119.089 151.78 118.992 152.186 119.027L152.931 124.341Z" fill="black"/>
<path opacity="0.1" d="M159.555 118.816L156.834 122.84L155.285 118.426C155.946 118.142 156.662 118.007 157.381 118.03C158.144 118.169 158.879 118.435 159.555 118.816Z" fill="black"/>
<g opacity="0.1">
<path opacity="0.1" d="M149.226 170.268C148.901 170.657 148.49 170.965 148.025 171.169C145.896 172.188 143.467 172.39 141.197 171.739C140.934 172.06 140.649 172.363 140.345 172.646C141.575 173.131 142.892 173.357 144.214 173.309C145.535 173.262 146.833 172.942 148.025 172.37C148.49 172.166 148.901 171.858 149.226 171.469C149.433 171.169 149.574 170.829 149.64 170.471C149.706 170.113 149.696 169.745 149.611 169.391C149.551 169.709 149.419 170.009 149.226 170.268Z" fill="black"/>
<path opacity="0.1" d="M142.711 150.157C142.907 150.944 143.022 151.748 143.053 152.559C143.122 151.347 143.007 150.132 142.711 148.956C142.345 147.527 141.708 146.145 141.594 144.674C141.594 144.488 141.594 144.302 141.564 144.11C141.535 144.698 141.545 145.288 141.594 145.875C141.708 147.346 142.345 148.728 142.711 150.157Z" fill="black"/>
<path opacity="0.1" d="M173.793 158.012C174.048 156.424 174.156 154.815 174.117 153.208C174.096 154.415 173.988 155.619 173.793 156.811C173.487 158.612 172.952 160.414 172.712 162.251C172.588 163.237 172.542 164.231 172.574 165.224C172.59 164.631 172.636 164.04 172.712 163.452C172.952 161.615 173.487 159.831 173.793 158.012Z" fill="black"/>
<path opacity="0.1" d="M142.591 160.588C142.276 159.996 142.023 159.375 141.834 158.732C141.783 158.949 141.759 159.17 141.762 159.393C141.875 160.241 142.157 161.057 142.591 161.795C143.032 162.801 143.286 163.88 143.341 164.977C143.45 163.475 143.192 161.969 142.591 160.588Z" fill="black"/>
<path opacity="0.1" d="M168.334 154.757C168.387 155.031 168.425 155.307 168.449 155.585C168.449 155.495 168.449 155.411 168.449 155.321C168.476 154.729 168.432 154.137 168.316 153.556C168.184 152.925 167.968 152.301 167.866 151.664C167.836 151.806 167.818 151.951 167.812 152.096C167.876 153.001 168.052 153.895 168.334 154.757Z" fill="black"/>
<path opacity="0.1" d="M164.551 170.91C164.459 170.814 164.373 170.711 164.293 170.604C164.145 170.845 164.084 171.128 164.119 171.409C164.194 171.679 164.344 171.922 164.551 172.111C165.783 173.434 167.294 174.465 168.975 175.129C170.656 175.793 172.464 176.073 174.268 175.949C174.165 175.552 174.063 175.162 173.967 174.748C172.214 174.828 170.463 174.527 168.837 173.864C167.212 173.202 165.749 172.194 164.551 170.91Z" fill="black"/>
<path opacity="0.1" d="M169.746 146.115C169.743 146.094 169.743 146.071 169.746 146.049C170.088 143.84 168.256 141.918 166.413 140.645C165.007 139.67 163.481 138.881 161.873 138.297C160.885 137.943 159.863 137.695 158.822 137.558C156.883 137.296 154.909 137.517 153.076 138.201C152.317 138.487 151.598 138.871 150.938 139.342C150.545 139.59 150.217 139.93 149.983 140.333C149.791 140.785 149.704 141.276 149.731 141.768C149.731 142.182 149.731 142.596 149.731 143.017V142.969C149.704 142.477 149.791 141.986 149.983 141.534C150.217 141.131 150.545 140.791 150.938 140.543C151.598 140.072 152.317 139.688 153.076 139.402C154.909 138.718 156.883 138.497 158.822 138.759C159.863 138.896 160.885 139.144 161.873 139.498C163.481 140.082 165.007 140.871 166.413 141.846C167.944 142.879 169.451 144.368 169.746 146.115Z" fill="black"/>
<path opacity="0.1" d="M148.812 148.992C148.211 150.139 147.19 151.069 146.692 152.283C146.488 152.787 146.361 153.32 146.314 153.862C146.254 154.424 146.224 154.99 146.224 155.555C146.224 156.066 146.224 156.582 146.224 157.099C146.224 156.984 146.224 156.87 146.224 156.756C146.224 156.191 146.254 155.625 146.314 155.063C146.361 154.521 146.488 153.988 146.692 153.484C147.19 152.283 148.187 151.34 148.812 150.193C149.779 148.391 149.761 146.32 149.743 144.26C149.822 145.889 149.503 147.514 148.812 148.992Z" fill="black"/>
</g>
<path opacity="0.1" d="M172.772 142.158C172.689 142.275 172.593 142.382 172.484 142.476C172.272 142.651 172.035 142.792 171.781 142.897C170.034 143.653 170.106 141.185 169.193 140.338C168.608 139.907 167.889 139.694 167.163 139.738C165.406 139.65 163.646 139.572 161.885 139.504C158.948 139.396 156.018 139.342 153.087 139.408C151.682 139.432 150.281 139.49 148.884 139.582C147.262 139.69 145.521 139.9 144.14 140.669C143.667 140.929 143.239 141.263 142.873 141.66C142.542 142.02 142.194 142.476 141.738 142.56C142.067 140.596 142.933 138.76 144.239 137.256C145.546 135.753 147.243 134.639 149.142 134.039C152.217 131.749 156.059 130.735 159.864 131.211C163.669 131.686 167.143 133.614 169.559 136.591C170.624 137.486 171.473 138.609 172.045 139.876C172.367 140.609 172.611 141.374 172.772 142.158Z" fill="black"/>
<path d="M171.781 141.696C170.033 142.452 170.105 139.984 169.193 139.137C168.607 138.706 167.889 138.493 167.163 138.537C161.078 138.137 154.975 138.085 148.883 138.381C146.716 138.525 144.338 138.849 142.878 140.459C142.506 140.867 142.116 141.395 141.557 141.377C141.371 140.176 141.239 138.927 141.149 137.696C141.094 137.235 141.119 136.768 141.221 136.315C141.371 135.799 141.713 135.36 141.887 134.856C142.059 134.214 142.12 133.548 142.068 132.886C142.094 130.436 142.752 128.035 143.979 125.914C145.206 123.793 146.959 122.025 149.07 120.78C149.599 120.521 150.09 120.189 150.529 119.795C150.681 119.614 150.848 119.445 151.027 119.291C151.374 119.077 151.78 118.98 152.186 119.014C152.474 119.014 152.787 119.014 153.039 119.014C153.816 118.929 154.575 118.726 155.291 118.414C155.952 118.13 156.667 117.995 157.387 118.018C158.15 118.157 158.885 118.423 159.56 118.804C159.885 118.961 160.225 119.084 160.575 119.171C161.122 119.297 161.686 119.291 162.233 119.399C163.118 119.624 163.958 119.998 164.719 120.504C165.626 120.993 166.466 121.599 167.217 122.305C168.033 123.238 168.687 124.302 169.151 125.452C169.946 127.04 170.551 128.718 170.952 130.448C171.438 132.934 171.198 135.624 172.351 137.882C173.054 139.3 173.696 140.873 171.781 141.696Z" fill="#FED253"/>
<path opacity="0.1" d="M141.341 139.81C141.341 139.81 153.79 128.484 172.327 137.876C172.327 137.876 151.4 133.114 141.341 139.81Z" fill="black"/>
<path d="M5.69898 197.681C4.00555 194.907 1.4594 192.366 1.85573 189.22C6.51567 189.754 10.9354 188.619 15.205 186.644C19.4746 184.668 23.438 182.104 27.4373 179.588C29.0107 178.597 30.578 177.624 32.1393 176.723C34.6134 175.306 37.0695 173.721 39.5856 172.333C43.1886 170.352 46.8637 168.73 50.9111 168.418C51.6443 168.361 52.3799 168.343 53.115 168.364C58.0992 168.46 63.2636 169.799 67.6473 167.565L67.9175 167.421C70.4036 166.058 72.2111 163.74 74.3429 161.861C75.8755 160.535 77.5443 159.376 79.3211 158.402C82.5578 156.6 86.0648 155.159 89.3736 153.46C90.2206 153.023 91.0247 152.509 91.7756 151.922L92.3401 151.472L92.4662 151.364C92.6043 151.25 92.7424 151.136 92.8745 151.015L93.1328 150.787L93.397 150.547L93.6012 150.355L93.9314 150.043L93.9675 150.001L94.4899 149.484L94.7001 149.274L95.0664 148.896L95.2826 148.679C95.6489 148.301 96.0152 147.917 96.3875 147.545C96.7598 147.172 97.2643 146.668 97.7146 146.253L98.147 145.869L98.2731 145.761L98.6214 145.473L98.7835 145.335L99.1258 145.07L99.294 144.938C99.4621 144.812 99.6363 144.692 99.8104 144.572C99.9707 144.461 100.139 144.363 100.315 144.278L99.1919 141.557L102.423 140.224L146.98 248.346L143.743 249.679L118.258 187.827L118.078 188.007C112.174 193.832 104.942 198.136 97.006 200.545H96.958C92.5203 201.884 87.5541 202.833 83.8189 205.319C82.4945 206.18 81.3435 207.282 80.426 208.568C79.5493 209.817 78.9368 211.24 78.024 212.441C77.8499 212.664 77.6577 212.88 77.4656 213.084C76.3735 214.166 75.1651 215.125 73.8625 215.942L73.292 216.333C69.423 219.055 65.3922 221.54 61.2218 223.773C58.8152 225.026 56.306 226.07 53.7215 226.896C51.8419 227.496 49.9023 227.934 48.0227 228.529C46.7584 228.912 45.5305 229.406 44.3536 230.006C41.1709 231.67 38.7269 234.276 36.4149 237.056C34.3912 239.494 32.4696 242.076 30.2477 244.298C28.8545 245.679 26.7347 246.988 25.0533 246.178L24.711 245.98C24.7651 245.89 24.8071 245.799 24.8551 245.703C26.1823 242.923 24.5489 239.488 22.351 237.26C22.1228 237.026 21.8886 236.798 21.6484 236.582C21.4082 236.366 20.9759 235.981 20.6336 235.681C18.754 234.066 16.7543 232.564 15.4512 230.481C14.4566 228.73 13.7815 226.817 13.4575 224.83C12.857 222.001 12.4547 219.089 10.9174 216.681C9.90853 215.09 8.40726 213.732 7.31434 212.207C6.62348 211.305 6.16933 210.243 5.99322 209.121C5.74702 207.169 6.65378 205.259 6.99607 203.314C7.0979 202.784 7.1402 202.244 7.12218 201.704C6.99673 200.264 6.50698 198.88 5.69898 197.681Z" fill="url(#paint0_linear_2841_3630)"/>
<path d="M142.611 248.751L145.792 247.439L101.977 141.136L98.7956 142.447L142.611 248.751Z" fill="#D6D8E1"/>
<path d="M11.9919 216.303C13.4992 218.675 13.9015 221.533 14.484 224.313C14.8071 226.268 15.4718 228.15 16.4477 229.874C17.7328 231.922 19.6964 233.399 21.54 234.984C21.8763 235.279 22.2125 235.585 22.5368 235.873C22.771 236.083 23.0052 236.312 23.2274 236.534C25.3892 238.726 26.9926 242.107 25.6895 244.839C25.6495 244.932 25.6033 245.022 25.5514 245.109C25.6569 245.181 25.7672 245.245 25.8816 245.301C27.539 246.106 29.6228 244.821 30.992 243.458C33.1778 241.272 35.0694 238.738 37.0571 236.342C39.327 233.603 41.735 231.039 44.8637 229.406C46.0186 228.814 47.2245 228.328 48.4667 227.953C50.3103 227.352 52.2199 226.926 54.0694 226.349C56.6099 225.537 59.0768 224.51 61.4436 223.281C65.5508 221.082 69.5214 218.638 73.3337 215.96L73.8982 215.576C75.1783 214.774 76.3664 213.833 77.4411 212.772C77.6333 212.568 77.8195 212.357 77.9936 212.135C78.9184 210.934 79.5249 209.559 80.3956 208.328C81.2987 207.063 82.4313 205.98 83.7345 205.133C87.4096 202.689 92.2857 201.752 96.6514 200.437H96.6994C104.501 198.064 111.61 193.834 117.417 188.109C117.898 187.707 118.258 187.179 118.456 186.584C118.642 185.737 118.186 184.896 117.747 184.152C117.237 183.275 116.738 182.398 116.246 181.509C114.031 177.479 112.054 173.322 110.325 169.061C109.947 168.124 109.58 167.193 109.226 166.25C108.317 163.848 107.489 161.412 106.74 158.942C106.494 158.126 106.253 157.303 106.025 156.48C105.983 156.324 105.935 156.156 105.893 155.976C104.896 151.97 103.563 142.597 99.4557 145.401C98.2342 146.274 97.0981 147.262 96.0629 148.349C95.2642 149.16 94.4835 149.995 93.6608 150.799C92.9908 151.458 92.283 152.078 91.5411 152.655C90.7881 153.232 89.9841 153.738 89.139 154.168C85.8783 155.838 82.4314 157.237 79.2547 159.026C77.5054 159.982 75.8627 161.122 74.3545 162.425C72.2588 164.275 70.4813 166.557 68.0372 167.896L67.773 168.04C63.4614 170.232 58.3871 168.917 53.4809 168.821C52.7599 168.802 52.0384 168.821 51.3191 168.875C47.3377 169.175 43.6987 170.772 40.1797 172.724C37.7056 174.093 35.2916 175.642 32.8595 177.042C31.3222 177.924 29.7849 178.879 28.2356 179.858C24.3083 182.332 20.3269 184.926 16.2255 186.8C12.0219 188.709 7.68027 189.85 3.09841 189.328C2.70808 192.421 5.20619 194.919 6.87559 197.645C7.6774 198.817 8.16345 200.176 8.28679 201.59C8.30885 202.119 8.27057 202.649 8.17269 203.17C7.8364 205.085 6.97167 206.959 7.18786 208.886C7.35826 209.986 7.80223 211.024 8.47895 211.907C9.52383 213.402 10.9951 214.741 11.9919 216.303Z" fill="#F86D70"/>
<path d="M134.081 228.811C134.081 228.811 139.342 233.399 144.674 235.843C150.007 238.287 146.476 247.054 146.476 247.054C146.476 247.054 140.825 248.352 136.868 242.851C132.91 237.35 134.081 228.811 134.081 228.811Z" fill="#FBBEBE"/>
<path d="M417.545 306.907C417.545 306.907 403.613 325.24 392.053 325.391C380.493 325.541 373.708 333.113 379.196 337.845C384.685 342.577 444.495 335.143 444.495 335.143C444.495 335.143 445.06 312.612 439.877 309.321C434.695 306.03 417.545 306.907 417.545 306.907Z" fill="#444176"/>
<path d="M567.341 328.916C567.341 328.916 569.473 343.436 562.885 353.338C556.298 363.241 574.787 367.06 574.787 367.06C574.787 367.06 588.221 370.801 589.199 357.53C590.178 344.259 589.86 334.11 588.599 333.029C587.338 331.948 586.287 324.484 586.287 324.484L567.341 328.916Z" fill="#444176"/>
<path d="M356.443 356.341C356.443 356.341 355.957 309.375 402.43 290.285L413.221 269.754L418.397 257.143C420.272 252.575 423.221 248.528 426.994 245.343C430.767 242.159 435.252 239.932 440.07 238.851L448.441 236.972L451.029 226.067C452.408 220.238 455.463 214.94 459.818 210.827C464.173 206.714 469.637 203.967 475.536 202.923C480.626 201.978 485.791 201.496 490.969 201.482C493.259 201.516 495.502 202.143 497.479 203.3C499.457 204.458 501.101 206.107 502.252 208.088C502.252 208.088 546.281 207.601 548.233 231.573C548.233 231.573 552.641 253.582 559 257.497C559 257.497 569.761 255.053 580.522 270.708L592.262 310.822C592.262 310.822 623.08 339.683 613.784 366.069C613.784 366.069 601.066 384.168 536.493 371.936C536.493 371.936 467.519 392.954 430.804 364.129C430.798 364.165 369.654 375.905 356.443 356.341Z" fill="#A8A8A8"/>
<path opacity="0.1" d="M387.261 349.003C387.261 349.003 397.049 335.305 396.557 325.517C396.064 315.729 398.863 291.888 398.863 291.888" stroke="black" stroke-miterlimit="10"/>
<path opacity="0.1" d="M422.973 312.312C422.973 312.312 432.755 294.212 431.777 284.43C431.777 284.43 442.051 265.814 449.876 267.304" stroke="black" stroke-miterlimit="10"/>
<path opacity="0.1" d="M476.784 260.944C476.784 260.944 503.687 251.162 505.158 243.337" stroke="black" stroke-miterlimit="10"/>
<path opacity="0.1" d="M486.567 283.451C486.567 283.451 514.941 270.733 514.941 267.304H529.119C529.119 267.304 549.668 294.212 547.224 305.952" stroke="black" stroke-miterlimit="10"/>
<path opacity="0.1" d="M519.835 303.016C519.835 303.016 492.44 301.058 482.651 308.889C472.863 316.719 455.256 320.629 455.256 320.629C455.256 320.629 444.981 342.643 441.066 346.553C437.151 350.462 430.792 364.165 430.792 364.165" stroke="black" stroke-miterlimit="10"/>
<path opacity="0.1" d="M519.835 328.946C519.835 328.946 522.765 339.214 526.681 345.087C530.596 350.96 536.463 371.99 536.463 371.99" stroke="black" stroke-miterlimit="10"/>
<path opacity="0.1" d="M565.815 358.785C565.815 358.785 572.025 376.061 577.483 376.229" stroke="black" stroke-miterlimit="10"/>
<path opacity="0.1" d="M525.143 284.628C525.143 284.628 541.273 288.988 548.017 299.551C554.76 310.114 575.358 319.692 575.358 319.692" stroke="black" stroke-miterlimit="10"/>
<path opacity="0.1" d="M532.061 232.588C532.061 232.588 532.061 255.089 538.42 255.089C544.78 255.089 558.97 257.533 558.97 257.533" stroke="black" stroke-miterlimit="10"/>
<path opacity="0.1" d="M500.895 205.866C500.895 205.866 499.267 244.737 490.95 254.801" stroke="black" stroke-miterlimit="10"/>
<g opacity="0.05">
<path opacity="0.05" d="M591.253 310.354L579.513 270.24C568.752 254.585 557.991 257.029 557.991 257.029C551.632 253.114 547.23 231.099 547.23 231.099C545.272 207.127 501.243 207.619 501.243 207.619C500.09 205.635 498.442 203.984 496.46 202.826C494.478 201.668 492.23 201.044 489.936 201.014C487.858 201.014 485.732 201.08 483.606 201.254C484.807 201.374 485.958 201.544 487.059 201.764L490.482 207.637C490.482 207.637 534.505 207.145 536.463 231.117C536.463 231.117 540.871 253.132 547.23 257.047C547.23 257.047 557.991 254.597 568.752 270.258L580.492 310.372C580.492 310.372 611.31 339.232 602.014 365.619C602.014 365.619 595.739 374.548 569.635 375.629C604.831 376.92 612.775 365.619 612.775 365.619C622.071 339.214 591.253 310.354 591.253 310.354Z" fill="black"/>
<path opacity="0.05" d="M419.058 363.673C408.702 365.536 398.231 366.682 387.717 367.102C399.974 367.57 412.722 366.243 420.937 365.114C420.301 364.628 419.676 364.159 419.058 363.673Z" fill="black"/>
<path opacity="0.05" d="M524.723 371.503C509.663 375.727 494.161 378.178 478.532 378.806C501.081 379.622 522.441 374.92 531.245 372.662C529.119 372.308 526.963 371.906 524.723 371.503Z" fill="black"/>
</g>
<path d="M133.823 447.804C133.823 447.804 147.28 447.389 151.334 444.501C155.387 441.613 172.027 438.166 173.036 442.796C174.045 447.425 193.255 465.825 178.062 465.951C162.869 466.077 142.77 463.585 138.723 461.117C134.675 458.649 133.823 447.804 133.823 447.804Z" fill="#A8A8A8"/>
<path opacity="0.2" d="M178.338 464.336C163.145 464.462 143.041 461.97 138.993 459.532C135.913 457.652 134.681 450.915 134.273 447.81H133.823C133.823 447.81 134.675 458.661 138.723 461.123C142.77 463.585 162.875 466.077 178.062 465.957C182.452 465.921 183.965 464.36 183.881 462.048C183.274 463.441 181.599 464.312 178.338 464.336Z" fill="black"/>
<path d="M461.904 414.055C461.904 414.055 446.056 410.885 441.835 406.657C437.613 402.43 418.595 395.043 416.481 400.322C414.368 405.6 387.963 423.561 405.919 426.744C423.874 429.927 448.17 430.948 453.455 428.858C458.739 426.768 461.904 414.055 461.904 414.055Z" fill="#A8A8A8"/>
<path opacity="0.2" d="M405.919 424.75C423.88 427.915 448.17 428.954 453.455 426.858C457.472 425.249 460.27 417.52 461.375 413.923L461.904 414.037C461.904 414.037 458.733 426.708 453.455 428.822C448.176 430.936 423.88 429.879 405.919 426.708C400.736 425.795 399.253 423.646 399.811 420.931C400.256 422.721 402.063 424.084 405.919 424.75Z" fill="black"/>
<path opacity="0.1" d="M310.161 68.9683H306.39C307.091 68.9683 307.763 68.6899 308.259 68.1944C308.754 67.6989 309.033 67.0268 309.033 66.3261C309.033 65.6253 308.754 64.9532 308.259 64.4577C307.763 63.9622 307.091 63.6838 306.39 63.6838H275.836C275.136 63.6838 274.464 63.9622 273.968 64.4577C273.473 64.9532 273.194 65.6253 273.194 66.3261C273.194 67.0268 273.473 67.6989 273.968 68.1944C274.464 68.6899 275.136 68.9683 275.836 68.9683H279.608C278.93 69.0007 278.29 69.2929 277.821 69.7843C277.353 70.2757 277.091 70.9286 277.091 71.6075C277.091 72.2865 277.353 72.9394 277.821 73.4308C278.29 73.9222 278.93 74.2144 279.608 74.2468H274.329C273.628 74.2468 272.956 74.5251 272.461 75.0206C271.965 75.5162 271.687 76.1882 271.687 76.889C271.687 77.5897 271.965 78.2618 272.461 78.7573C272.956 79.2528 273.628 79.5312 274.329 79.5312H304.883C305.584 79.5312 306.256 79.2528 306.751 78.7573C307.247 78.2618 307.525 77.5897 307.525 76.889C307.525 76.1882 307.247 75.5162 306.751 75.0206C306.256 74.5251 305.584 74.2468 304.883 74.2468H310.161C310.519 74.2638 310.876 74.2082 311.211 74.0832C311.546 73.9583 311.852 73.7666 312.111 73.5199C312.369 73.2731 312.576 72.9764 312.716 72.6477C312.857 72.319 312.93 71.9651 312.93 71.6075C312.93 71.2499 312.857 70.8961 312.716 70.5674C312.576 70.2387 312.369 69.9419 312.111 69.6952C311.852 69.4484 311.546 69.2568 311.211 69.1318C310.876 69.0069 310.519 68.9513 310.161 68.9683Z" fill="white"/>
<path opacity="0.1" d="M428.834 161.933H425.063C425.741 161.9 426.381 161.608 426.849 161.117C427.318 160.625 427.579 159.972 427.579 159.293C427.579 158.614 427.318 157.961 426.849 157.47C426.381 156.979 425.741 156.686 425.063 156.654H394.479C394.122 156.637 393.765 156.693 393.43 156.818C393.095 156.943 392.789 157.134 392.53 157.381C392.271 157.628 392.065 157.924 391.924 158.253C391.784 158.582 391.711 158.936 391.711 159.293C391.711 159.651 391.784 160.005 391.924 160.334C392.065 160.662 392.271 160.959 392.53 161.206C392.789 161.452 393.095 161.644 393.43 161.769C393.765 161.894 394.122 161.95 394.479 161.933H398.25C397.572 161.965 396.932 162.257 396.464 162.749C395.995 163.24 395.734 163.893 395.734 164.572C395.734 165.251 395.995 165.904 396.464 166.395C396.932 166.886 397.572 167.179 398.25 167.211H392.972C392.271 167.211 391.599 167.489 391.103 167.985C390.608 168.48 390.33 169.153 390.33 169.853C390.33 170.554 390.608 171.226 391.103 171.722C391.599 172.217 392.271 172.495 392.972 172.495H423.52C424.22 172.495 424.892 172.217 425.388 171.722C425.883 171.226 426.162 170.554 426.162 169.853C426.162 169.153 425.883 168.48 425.388 167.985C424.892 167.489 424.22 167.211 423.52 167.211H428.834C429.191 167.228 429.548 167.172 429.883 167.048C430.218 166.923 430.525 166.731 430.783 166.484C431.042 166.237 431.248 165.941 431.389 165.612C431.53 165.283 431.602 164.929 431.602 164.572C431.602 164.214 431.53 163.86 431.389 163.532C431.248 163.203 431.042 162.906 430.783 162.659C430.525 162.413 430.218 162.221 429.883 162.096C429.548 161.971 429.191 161.916 428.834 161.933Z" fill="white"/>
<path opacity="0.1" d="M252.987 144.734H249.216C249.573 144.751 249.93 144.696 250.265 144.571C250.6 144.446 250.907 144.254 251.165 144.007C251.424 143.76 251.63 143.464 251.771 143.135C251.912 142.806 251.984 142.452 251.984 142.095C251.984 141.737 251.912 141.383 251.771 141.055C251.63 140.726 251.424 140.429 251.165 140.183C250.907 139.936 250.6 139.744 250.265 139.619C249.93 139.494 249.573 139.439 249.216 139.456H218.656C218.299 139.439 217.942 139.494 217.607 139.619C217.272 139.744 216.966 139.936 216.707 140.183C216.448 140.429 216.242 140.726 216.102 141.055C215.961 141.383 215.888 141.737 215.888 142.095C215.888 142.452 215.961 142.806 216.102 143.135C216.242 143.464 216.448 143.76 216.707 144.007C216.966 144.254 217.272 144.446 217.607 144.571C217.942 144.696 218.299 144.751 218.656 144.734H222.428C222.07 144.717 221.714 144.773 221.379 144.898C221.043 145.023 220.737 145.214 220.478 145.461C220.22 145.708 220.014 146.004 219.873 146.333C219.732 146.662 219.66 147.016 219.66 147.373C219.66 147.731 219.732 148.085 219.873 148.413C220.014 148.742 220.22 149.039 220.478 149.286C220.737 149.532 221.043 149.724 221.379 149.849C221.714 149.974 222.07 150.03 222.428 150.013H217.143C216.442 150.013 215.77 150.291 215.275 150.786C214.779 151.282 214.501 151.954 214.501 152.655C214.501 153.356 214.779 154.028 215.275 154.523C215.77 155.019 216.442 155.297 217.143 155.297H247.697C248.398 155.297 249.07 155.019 249.565 154.523C250.061 154.028 250.339 153.356 250.339 152.655C250.339 151.954 250.061 151.282 249.565 150.786C249.07 150.291 248.398 150.013 247.697 150.013H252.975C253.333 150.03 253.69 149.974 254.025 149.849C254.36 149.724 254.666 149.532 254.925 149.286C255.183 149.039 255.389 148.742 255.53 148.413C255.671 148.085 255.744 147.731 255.744 147.373C255.744 147.016 255.671 146.662 255.53 146.333C255.389 146.004 255.183 145.708 254.925 145.461C254.666 145.214 254.36 145.023 254.025 144.898C253.69 144.773 253.333 144.717 252.975 144.734H252.987Z" fill="white"/>
</g>
<defs>
<linearGradient id="paint0_linear_2841_3630" x1="-435522" y1="39355.5" x2="-470625" y2="39355.5" gradientUnits="userSpaceOnUse">
<stop stop-color="#808080" stop-opacity="0.25"/>
<stop offset="0.54" stop-color="#808080" stop-opacity="0.12"/>
<stop offset="1" stop-color="#808080" stop-opacity="0.1"/>
</linearGradient>
<clipPath id="clip0_2841_3630">
<rect width="619.867" height="500" fill="white"/>
</clipPath>
</defs>
</svg>
