<svg width="111" height="40" viewBox="0 0 111 40" fill="none" xmlns="http://www.w3.org/2000/svg">
<path d="M0.000488281 7.06662C0.000488281 3.16383 3.16432 0 7.06711 0H17.667V17.6665H0.000488281V7.06662Z" fill="#0989B4"/>
<path d="M17.6666 0H28.2666C32.1693 0 35.3332 3.16383 35.3332 7.06662V17.6665H17.6666V0Z" fill="#0FA6DA"/>
<path d="M0 17.6666H17.6665V35.3332H7.06662C3.16383 35.3332 0 32.1693 0 28.2666V17.6666Z" fill="#0B607C"/>
<path d="M27.7285 40C26.3895 40 25.1321 39.8733 23.956 39.62C22.798 39.3667 21.8029 38.9506 20.9706 38.3716L22.219 35.1148C22.9066 35.5309 23.7208 35.8566 24.6616 36.0918C25.6206 36.327 26.4891 36.4446 27.2671 36.4446C28.3708 36.4446 29.194 36.2094 29.7368 35.739C30.2977 35.2867 30.5782 34.572 30.5782 33.5949V32.3465C30.1982 32.9979 29.6283 33.5135 28.8683 33.8935C28.1084 34.2734 27.2942 34.4634 26.4257 34.4634C25.2316 34.4634 24.1912 34.192 23.3046 33.6492C22.418 33.0883 21.7215 32.3103 21.2148 31.3152C20.7263 30.32 20.4821 29.153 20.4821 27.8141C20.4821 26.4752 20.7263 25.3082 21.2148 24.313C21.7215 23.3179 22.418 22.5489 23.3046 22.0061C24.1912 21.4452 25.2316 21.1648 26.4257 21.1648C27.3304 21.1648 28.1536 21.3638 28.8955 21.7619C29.6554 22.1418 30.2072 22.6484 30.551 23.2817V21.4633H35.2734V33.025C35.2734 35.359 34.622 37.1051 33.3193 38.263C32.0166 39.421 30.153 40 27.7285 40ZM27.9184 30.9081C28.7145 30.9081 29.3478 30.6367 29.8182 30.0939C30.2887 29.5511 30.5239 28.7911 30.5239 27.8141C30.5239 26.8371 30.2887 26.0771 29.8182 25.5343C29.3478 24.9915 28.7145 24.7201 27.9184 24.7201C27.1404 24.7201 26.5162 24.9915 26.0458 25.5343C25.5753 26.0771 25.3401 26.8371 25.3401 27.8141C25.3401 28.7911 25.5753 29.5511 26.0458 30.0939C26.5162 30.6367 27.1404 30.9081 27.9184 30.9081Z" fill="#2D4E61"/>
<path d="M42.7363 35.1148C41.7049 35.1148 40.7912 34.9248 39.9951 34.5448C39.2171 34.1649 38.6019 33.6492 38.1496 32.9979C37.7154 32.3284 37.4982 31.5685 37.4982 30.7181C37.4982 29.7591 37.7515 28.9992 38.2582 28.4383C38.7648 27.8593 39.579 27.4522 40.7008 27.217C41.8226 26.9637 43.3153 26.8371 45.1789 26.8371H46.2102V26.4571C46.2102 25.8057 46.0383 25.3444 45.6945 25.073C45.3689 24.8016 44.7989 24.6659 43.9847 24.6659C43.2972 24.6659 42.5372 24.7744 41.7049 24.9915C40.8727 25.2087 40.0584 25.5434 39.2623 25.9957L38.041 22.8203C38.4934 22.4947 39.0724 22.2052 39.778 21.9518C40.4836 21.6985 41.2255 21.5086 42.0035 21.3819C42.7815 21.2372 43.5143 21.1648 44.2018 21.1648C46.4273 21.1648 48.0738 21.6443 49.1413 22.6032C50.2269 23.5622 50.7697 25.073 50.7697 27.1356V34.8162H46.2645V32.9164C46.0293 33.604 45.6041 34.1468 44.9889 34.5448C44.3737 34.9248 43.6228 35.1148 42.7363 35.1148ZM43.8219 31.9665C44.4913 31.9665 45.0522 31.7494 45.5046 31.3152C45.975 30.8809 46.2102 30.311 46.2102 29.6054V29.1168H45.1789C44.1114 29.1168 43.3243 29.2344 42.8177 29.4697C42.3292 29.6868 42.0849 30.0396 42.0849 30.5281C42.0849 30.9443 42.2297 31.288 42.5191 31.5594C42.8267 31.8308 43.261 31.9665 43.8219 31.9665Z" fill="#2D4E61"/>
<path d="M58.8401 35.1148C57.6097 35.1148 56.4698 34.9881 55.4204 34.7348C54.3891 34.4815 53.5116 34.1287 52.7878 33.6764L53.9006 30.5553C54.57 30.9352 55.3481 31.2518 56.2346 31.5052C57.1212 31.7404 57.9987 31.858 58.8672 31.858C59.5367 31.858 60.0162 31.7675 60.3056 31.5866C60.5951 31.3875 60.7399 31.1342 60.7399 30.8267C60.7399 30.5553 60.6404 30.3562 60.4413 30.2296C60.2604 30.0848 59.9981 29.9763 59.6543 29.9039L56.6417 29.4154C55.5199 29.2344 54.6515 28.8273 54.0363 28.1941C53.4211 27.5608 53.1135 26.7375 53.1135 25.7243C53.1135 24.7835 53.3759 23.9783 53.9006 23.3089C54.4253 22.6213 55.1581 22.0966 56.0989 21.7347C57.0398 21.3548 58.1163 21.1648 59.3286 21.1648C60.2876 21.1648 61.2375 21.2824 62.1783 21.5176C63.1192 21.7347 63.9424 22.0966 64.6481 22.6032L63.4539 25.67C62.9292 25.3082 62.2778 25.0096 61.4998 24.7744C60.7218 24.5211 60.0252 24.3945 59.41 24.3945C58.6682 24.3945 58.1435 24.503 57.8359 24.7201C57.5283 24.9192 57.3745 25.1634 57.3745 25.4529C57.3745 25.9414 57.7092 26.24 58.3787 26.3485L61.3913 26.8642C62.5492 27.0451 63.4358 27.4432 64.051 28.0584C64.6842 28.6554 65.0009 29.4696 65.0009 30.501C65.0009 31.9665 64.44 33.1064 63.3182 33.9206C62.1964 34.7167 60.7037 35.1148 58.8401 35.1148Z" fill="#2D4E61"/>
<path d="M66.9846 34.8162V21.4633H71.6799V23.716C72.2951 22.178 73.6249 21.3367 75.6695 21.1919L76.9993 21.0834L77.2707 25.1544L74.6381 25.3986C73.6792 25.4891 72.9826 25.7605 72.5484 26.2128C72.1141 26.6471 71.897 27.2984 71.897 28.1669V34.8162H66.9846Z" fill="#2D4E61"/>
<path d="M83.7462 35.1148C82.0092 35.1148 80.7246 34.6444 79.8923 33.7035C79.0781 32.7446 78.671 31.288 78.671 29.3339V21.4633H83.5019V29.4697C83.5019 30.7724 84.0628 31.4237 85.1846 31.4237C85.836 31.4237 86.3697 31.1885 86.7859 30.7181C87.202 30.2477 87.4101 29.6234 87.4101 28.8454V21.4633H92.241V34.8162H87.5186V33.1607C86.6502 34.4634 85.3927 35.1148 83.7462 35.1148Z" fill="#2D4E61"/>
<path d="M95.0523 34.8162V15.6825H99.8833V26.8371H99.9376L104.334 21.4633H110.007L104.714 27.8141L110.197 34.8162H104.416L99.9376 29.2525H99.8833V34.8162H95.0523Z" fill="#2D4E61"/>
<path fill-rule="evenodd" clip-rule="evenodd" d="M10.1955 4.94775H7.47483V7.47713L4.9458 7.47713V10.1978H7.47483V12.721H10.1955V10.1978H12.7191V7.47713L10.1955 7.47713V4.94775Z" fill="white"/>
<path fill-rule="evenodd" clip-rule="evenodd" d="M28.4418 8.8344C27.3685 8.8344 26.4985 7.96434 26.4985 6.89107C26.4985 5.81781 27.3685 4.94775 28.4418 4.94775C29.5151 4.94775 30.3851 5.81781 30.3851 6.89107C30.3851 7.96434 29.5151 8.8344 28.4418 8.8344ZM24.5567 12.7195C23.4835 12.7195 22.6134 11.8494 22.6134 10.7762C22.6134 9.70289 23.4835 8.83284 24.5567 8.83284C25.63 8.83284 26.5 9.70289 26.5 10.7762C26.5 11.8494 25.63 12.7195 24.5567 12.7195Z" fill="white"/>
</svg>
