<svg width="80" height="36" viewBox="0 0 80 36" fill="none" xmlns="http://www.w3.org/2000/svg">
<path d="M3.15 33V1.275H25.02V6.72H9.99V14.145H24.12V19.59H9.99V27.555H25.02V33H3.15Z" fill="#04536C"/>
<path d="M57.0948 15.495V31.02C55.5648 31.77 53.7648 32.355 51.6948 32.775C49.6248 33.195 47.4948 33.405 45.3048 33.405C41.9448 33.405 39.0348 32.76 36.5748 31.47C34.1148 30.15 32.2248 28.275 30.9048 25.845C29.5848 23.385 28.9248 20.475 28.9248 17.115C28.9248 13.815 29.5698 10.95 30.8598 8.52C32.1798 6.06 34.0548 4.17 36.4848 2.85C38.9148 1.53 41.7498 0.869998 44.9898 0.869998C47.2698 0.869998 49.3848 1.185 51.3348 1.815C53.3148 2.445 54.9498 3.315 56.2398 4.425L54.0348 9.42C52.5648 8.37 51.1248 7.62 49.7148 7.17C48.3348 6.69 46.8348 6.45 45.2148 6.45C39.0948 6.45 36.0348 10.005 36.0348 17.115C36.0348 20.775 36.8298 23.505 38.4198 25.305C40.0098 27.105 42.4098 28.005 45.6198 28.005C47.3598 28.005 49.0848 27.78 50.7948 27.33V20.355H44.5848V15.495H57.0948Z" fill="white"/>
<path d="M23.15 33V1.275H45.02V6.72H29.99V14.145H44.12V19.59H29.99V27.555H45.02V33H23.15Z" fill="#04536C"/>
<path d="M77.0948 15.495V31.02C75.5648 31.77 73.7648 32.355 71.6948 32.775C69.6248 33.195 67.4948 33.405 65.3048 33.405C61.9448 33.405 59.0348 32.76 56.5748 31.47C54.1148 30.15 52.2248 28.275 50.9048 25.845C49.5848 23.385 48.9248 20.475 48.9248 17.115C48.9248 13.815 49.5698 10.95 50.8598 8.52C52.1798 6.06 54.0548 4.17 56.4848 2.85C58.9148 1.53 61.7498 0.869998 64.9898 0.869998C67.2698 0.869998 69.3848 1.185 71.3348 1.815C73.3148 2.445 74.9498 3.315 76.2398 4.425L74.0348 9.42C72.5648 8.37 71.1248 7.62 69.7148 7.17C68.3348 6.69 66.8348 6.45 65.2148 6.45C59.0948 6.45 56.0348 10.005 56.0348 17.115C56.0348 20.775 56.8298 23.505 58.4198 25.305C60.0098 27.105 62.4098 28.005 65.6198 28.005C67.3598 28.005 69.0848 27.78 70.7948 27.33V20.355H64.5848V15.495H77.0948Z" fill="white"/>
</svg>
