<svg width="813" height="450" viewBox="0 0 813 450" fill="none" xmlns="http://www.w3.org/2000/svg">
<path d="M406.303 450.001C630.698 450.001 812.607 437.959 812.607 423.103C812.607 408.248 630.698 396.205 406.303 396.205C181.908 396.205 0 408.248 0 423.103C0 437.959 181.908 450.001 406.303 450.001Z" fill="#F2F2F2"/>
<g clip-path="url(#clip0_835_409)">
<path d="M353.349 346.756L353.349 345.6C355.647 345.599 357.98 345.552 360.284 345.46L360.33 346.615C358.011 346.708 355.663 346.755 353.349 346.756ZM346.371 346.622C344.06 346.532 341.716 346.394 339.403 346.211L339.494 345.059C341.792 345.241 344.121 345.378 346.416 345.467L346.371 346.622ZM367.298 346.196L367.206 345.044C369.499 344.86 371.821 344.627 374.105 344.351L374.244 345.499C371.944 345.777 369.607 346.011 367.298 346.196V346.196ZM332.456 345.522C330.152 345.246 327.826 344.921 325.543 344.554L325.726 343.413C327.994 343.777 330.304 344.1 332.593 344.374L332.456 345.522ZM381.155 344.523L380.971 343.382C383.238 343.016 385.533 342.596 387.792 342.137L388.022 343.269C385.748 343.733 383.437 344.154 381.155 344.523V344.523ZM318.674 343.308C316.4 342.848 314.108 342.335 311.861 341.785L312.136 340.662C314.367 341.209 316.644 341.718 318.903 342.175L318.674 343.308ZM394.834 341.738L394.557 340.616C396.795 340.065 399.049 339.462 401.256 338.822L401.577 339.933C399.355 340.576 397.087 341.184 394.834 341.738V341.738ZM305.116 339.987C302.887 339.343 300.644 338.647 298.449 337.917L298.814 336.819C300.994 337.545 303.222 338.237 305.436 338.876L305.116 339.987ZM408.242 337.854L407.875 336.758C410.057 336.029 412.254 335.245 414.406 334.428L414.817 335.508C412.651 336.331 410.438 337.121 408.242 337.855V337.854ZM291.853 335.57C289.685 334.749 287.5 333.87 285.361 332.959L285.814 331.896C287.939 332.801 290.109 333.673 292.263 334.489L291.853 335.57ZM421.274 332.905L420.82 331.842C422.933 330.939 425.055 329.982 427.125 328.998L427.622 330.042C425.537 331.033 423.401 331.996 421.274 332.905V332.905ZM278.981 330.087C276.882 329.091 274.777 328.039 272.725 326.96L273.263 325.938C275.301 327.008 277.391 328.053 279.477 329.043L278.981 330.087ZM433.852 326.923L433.314 325.901C435.35 324.83 437.389 323.704 439.374 322.555L439.953 323.555C437.954 324.712 435.901 325.845 433.852 326.924V326.923ZM266.603 323.583C264.589 322.419 262.577 321.201 260.623 319.964L261.242 318.987C263.182 320.216 265.181 321.426 267.182 322.583L266.603 323.583ZM445.916 319.943L445.297 318.967C447.235 317.739 449.178 316.453 451.073 315.143L451.73 316.094C449.823 317.413 447.866 318.708 445.916 319.943L445.916 319.943ZM254.796 316.107C252.885 314.786 250.978 313.412 249.129 312.02L249.824 311.097C251.661 312.479 253.555 313.845 255.453 315.157L254.796 316.107ZM457.386 312.013L456.691 311.09C458.524 309.712 460.358 308.273 462.145 306.813L462.876 307.709C461.078 309.178 459.231 310.626 457.386 312.013V312.013ZM243.632 307.71C241.838 306.243 240.048 304.721 238.314 303.183L239.08 302.319C240.803 303.845 242.581 305.358 244.364 306.815L243.632 307.71ZM468.19 303.186L467.424 302.322C469.146 300.795 470.86 299.213 472.52 297.62L473.32 298.454C471.65 300.058 469.924 301.65 468.19 303.186L468.19 303.186ZM233.181 298.449C231.514 296.848 229.853 295.187 228.244 293.514L229.077 292.713C230.676 294.375 232.326 296.025 233.982 297.615L233.181 298.449ZM478.258 293.519L477.425 292.717C479.018 291.06 480.601 289.346 482.131 287.622L482.995 288.39C481.456 290.125 479.862 291.851 478.258 293.519V293.519ZM223.509 288.388C221.968 286.65 220.446 284.863 218.984 283.075L219.879 282.344C221.331 284.12 222.843 285.895 224.374 287.62L223.509 288.388ZM487.524 283.074L486.629 282.342C488.09 280.557 489.531 278.72 490.914 276.884L491.837 277.58C490.446 279.428 488.994 281.276 487.524 283.074ZM214.676 277.588C213.283 275.739 211.909 273.837 210.592 271.934L211.542 271.276C212.85 273.166 214.215 275.056 215.599 276.893L214.676 277.588ZM495.927 271.915L494.977 271.258C496.29 269.359 497.58 267.412 498.811 265.471L499.787 266.089C498.548 268.044 497.249 270.004 495.927 271.915ZM206.739 266.122C205.501 264.169 204.285 262.164 203.124 260.162L204.124 259.583C205.277 261.571 206.485 263.563 207.715 265.503L206.739 266.122ZM503.411 260.112L502.411 259.533C503.568 257.533 504.697 255.487 505.768 253.453L506.791 253.991C505.713 256.039 504.576 258.099 503.411 260.112ZM199.753 254.061C198.676 252.017 197.626 249.921 196.631 247.833L197.675 247.336C198.663 249.41 199.706 251.492 200.776 253.523L199.753 254.061ZM509.921 247.737L508.877 247.241C509.867 245.159 510.828 243.028 511.733 240.906L512.796 241.36C511.885 243.496 510.917 245.642 509.921 247.737ZM193.765 241.487C192.854 239.358 191.977 237.186 191.158 235.031L192.238 234.621C193.052 236.76 193.923 238.918 194.827 241.032L193.765 241.487ZM515.412 234.868L514.331 234.459C515.15 232.296 515.936 230.093 516.665 227.909L517.761 228.275C517.027 230.474 516.237 232.692 515.412 234.868ZM188.807 228.458C188.072 226.26 187.371 224.018 186.726 221.794L187.836 221.472C188.477 223.681 189.173 225.908 189.904 228.091L188.807 228.458ZM519.835 221.608L518.725 221.287C519.362 219.081 519.964 216.828 520.515 214.588L521.637 214.863C521.083 217.119 520.477 219.388 519.835 221.608ZM184.916 215.051C184.361 212.8 183.845 210.51 183.382 208.241L184.514 208.01C184.974 210.263 185.487 212.539 186.038 214.775L184.916 215.051ZM523.164 208.052L522.031 207.822C522.488 205.571 522.905 203.275 523.272 201L524.413 201.184C524.044 203.475 523.624 205.785 523.164 208.052ZM182.124 201.375C181.753 199.093 181.424 196.767 181.144 194.463L182.292 194.324C182.569 196.613 182.897 198.923 183.265 201.189L182.124 201.375ZM525.385 194.27L524.237 194.132C524.512 191.844 524.744 189.523 524.926 187.233L526.078 187.325C525.895 189.63 525.662 191.967 525.385 194.27V194.27ZM180.444 187.518C180.257 185.21 180.115 182.865 180.021 180.55L181.176 180.503C181.269 182.803 181.41 185.132 181.596 187.425L180.444 187.518ZM526.494 180.357L525.339 180.312C525.429 178.008 525.476 175.676 525.476 173.378L525.475 172.995H526.631L526.632 173.376C526.632 175.691 526.585 178.038 526.494 180.357ZM181.031 173.57H179.875L179.875 173.376C179.875 171.121 179.919 168.838 180.006 166.592L181.16 166.636C181.075 168.868 181.031 171.136 181.031 173.378L181.031 173.57ZM525.323 166.064C525.227 163.769 525.084 161.44 524.895 159.142L526.048 159.048C526.237 161.361 526.382 163.705 526.477 166.016L525.323 166.064ZM181.565 159.714L180.413 159.624C180.595 157.309 180.825 154.972 181.099 152.677L182.247 152.813C181.975 155.093 181.746 157.415 181.565 159.714ZM524.192 152.244C523.913 149.964 523.584 147.655 523.211 145.38L524.353 145.193C524.727 147.484 525.059 149.809 525.339 152.104L524.192 152.244ZM183.204 145.946L182.063 145.763C182.429 143.474 182.847 141.163 183.305 138.894L184.438 139.122C183.983 141.376 183.568 143.672 183.204 145.946L183.204 145.946ZM521.954 138.561C521.49 136.302 520.975 134.027 520.422 131.798L521.544 131.52C522.101 133.764 522.619 136.054 523.086 138.328L521.954 138.561ZM185.947 132.354L184.824 132.08C185.374 129.83 185.978 127.56 186.619 125.333L187.73 125.653C187.093 127.865 186.493 130.12 185.947 132.354ZM518.618 125.103C517.974 122.895 517.277 120.669 516.543 118.486L517.639 118.118C518.377 120.315 519.08 122.557 519.727 124.779L518.618 125.103ZM189.782 119.029L188.685 118.665C189.417 116.464 190.205 114.244 191.027 112.068L192.109 112.477C191.291 114.639 190.509 116.843 189.782 119.029ZM514.201 111.959C513.38 109.809 512.506 107.653 511.604 105.55L512.666 105.094C513.575 107.211 514.454 109.382 515.281 111.546L514.201 111.959ZM194.699 106.026L193.635 105.574C194.543 103.438 195.508 101.291 196.503 99.1932L197.547 99.6882C196.559 101.772 195.601 103.905 194.699 106.026ZM508.75 99.2485C507.76 97.1766 506.715 95.0963 505.643 93.0654L506.664 92.5256C507.744 94.5703 508.797 96.6645 509.793 98.7507L508.75 99.2485ZM200.65 93.4723L199.627 92.9356C200.704 90.8821 201.839 88.8215 203 86.8109L204.001 87.3889C202.848 89.3859 201.721 91.4329 200.65 93.4723ZM502.287 87.0107C501.131 85.021 499.921 83.0304 498.69 81.0938L499.665 80.4735C500.905 82.4231 502.123 84.4273 503.286 86.43L502.287 87.0107ZM207.593 81.4473L206.617 80.8293C207.857 78.869 209.153 76.9074 210.47 74.9996L211.421 75.6562C210.113 77.5514 208.825 79.4996 207.593 81.4473ZM494.856 75.3244C493.545 73.4351 492.178 71.5467 490.793 69.7124L491.715 69.016C493.109 70.8626 494.485 72.7635 495.805 74.6657L494.856 75.3244ZM215.478 70.0248L214.554 69.3306C215.947 67.4766 217.396 65.6266 218.861 63.8313L219.756 64.5622C218.301 66.3453 216.862 68.1832 215.478 70.0248V70.0248ZM486.508 64.2662C485.05 62.4875 483.535 60.7139 482.007 58.9948L482.87 58.2267C484.41 59.9574 485.934 61.7428 487.402 63.5336L486.508 64.2662ZM224.25 59.2762L223.385 58.5103C224.919 56.7765 226.511 55.0489 228.116 53.3756L228.95 54.1758C227.356 55.8379 225.774 57.5542 224.25 59.2762L224.25 59.2762ZM477.298 53.9061C475.698 52.2465 474.046 50.5991 472.387 49.0092L473.187 48.1745C474.857 49.7751 476.52 51.4335 478.13 53.1041L477.298 53.9061ZM233.85 49.2683L233.048 48.4352C234.716 46.8304 236.44 45.2366 238.173 43.6975L238.941 44.5616C237.219 46.0905 235.506 47.6742 233.85 49.2683ZM467.285 44.3116C465.558 42.7846 463.778 41.2738 461.996 39.8214L462.727 38.9254C464.52 40.3877 466.312 41.9084 468.05 43.4458L467.285 44.3116ZM244.215 40.0635L243.482 39.1695C245.276 37.7007 247.121 36.2505 248.967 34.8587L249.663 35.7815C247.829 37.164 245.996 38.6048 244.215 40.0635ZM456.53 35.5459C454.686 34.162 452.791 32.7982 450.897 31.4922L451.553 30.5407C453.459 31.8554 455.368 33.2282 457.224 34.6214L456.53 35.5459ZM255.278 31.7211L254.619 30.7712C256.525 29.4508 258.48 28.1536 260.429 26.9153L261.049 27.8912C259.112 29.1209 257.17 30.4094 255.278 31.7211H255.278ZM445.104 27.6671C443.155 26.4362 441.155 25.2287 439.16 24.0782L439.738 23.077C441.746 24.2351 443.759 25.4508 445.721 26.6898L445.104 27.6671ZM266.968 24.2975L266.388 23.2974C268.386 22.1384 270.438 21.0029 272.485 19.9229L273.025 20.945C270.991 22.0179 268.953 23.1458 266.968 24.2975ZM433.075 20.7308C431.034 19.6613 428.942 18.6186 426.858 17.6318L427.352 16.5871C429.451 17.5805 431.557 18.6302 433.611 19.7071L433.075 20.7308ZM279.209 17.8412L278.712 16.7977C280.796 15.8041 282.931 14.8384 285.057 13.9275L285.512 14.9899C283.4 15.8947 281.279 16.8538 279.209 17.8412L279.209 17.8412ZM420.518 14.7865C418.394 13.8844 416.223 13.0143 414.066 12.1999L414.475 11.1186C416.646 11.9384 418.832 12.8146 420.97 13.7226L420.518 14.7865ZM291.923 12.3966L291.511 11.3164C293.674 10.4918 295.885 9.7 298.083 8.96264L298.451 10.0587C296.267 10.791 294.071 11.5777 291.923 12.3966ZM407.512 9.87693C405.328 9.15255 403.099 8.46316 400.887 7.82795L401.207 6.71725C403.433 7.35669 405.677 8.0506 407.875 8.77978L407.512 9.87693ZM305.069 7.98682L304.746 6.87724C306.969 6.23046 309.237 5.62037 311.487 5.0636L311.765 6.1856C309.53 6.73869 307.277 7.34484 305.069 7.98682ZM394.185 6.04958C391.953 5.50523 389.676 4.9987 387.416 4.54408L387.644 3.4108C389.919 3.86852 392.212 4.37871 394.459 4.92645L394.185 6.04958ZM318.528 4.65809L318.296 3.52594C320.562 3.06201 322.872 2.6376 325.162 2.26426L325.349 3.40487C323.074 3.77596 320.779 4.19756 318.528 4.65809ZM380.592 3.31374C378.319 2.95138 376.008 2.63027 373.724 2.35994L373.86 1.21198C376.159 1.48429 378.486 1.8074 380.774 2.17256L380.592 3.31374ZM332.213 2.42794L332.073 1.28055C334.373 1.00062 336.709 0.763308 339.018 0.575921L339.112 1.72783C336.818 1.91434 334.497 2.1497 332.213 2.42794ZM366.823 1.68267C364.531 1.50405 362.202 1.36916 359.9 1.28196L359.944 0.126686C362.261 0.214728 364.606 0.350466 366.913 0.530219L366.823 1.68267ZM346.034 1.30426L345.986 0.149561C348.297 0.0542032 350.645 0.00392412 352.965 0L352.967 1.15585C350.663 1.15978 348.33 1.20972 346.034 1.30426Z" fill="#ECECEC"/>
<path d="M549.155 118.498V87.036C539.381 84.7913 530.18 80.5403 522.136 74.5523C514.091 68.5643 507.379 60.9701 502.424 52.2512L502.424 52.2518C500.047 54.0143 497.165 54.9628 494.206 54.9565H469.223C475.889 71.5719 486.764 86.167 500.778 97.3076C514.792 108.448 531.464 115.751 549.155 118.498Z" fill="#3F3D56"/>
<path d="M549.158 85.2332V55.0089C549.159 52.7979 548.724 50.6084 547.878 48.5656C547.032 46.5227 545.792 44.6666 544.229 43.1032C542.665 41.5398 540.809 40.2997 538.766 39.4539C536.724 38.6081 534.534 38.1732 532.323 38.1738H508.067V41.0924C508.07 42.9642 507.692 44.8171 506.957 46.5386C506.222 48.2601 505.145 49.8144 503.792 51.1072C508.584 59.6223 515.09 67.0513 522.898 72.9251C530.707 78.7988 539.648 82.9897 549.158 85.2332Z" fill="#3F3D56"/>
<path d="M432.477 54.9568H416.855C413.179 54.9558 409.654 53.4945 407.055 50.8945C404.456 48.2945 402.996 44.7686 402.997 41.0924V38.1738H380.238C378.027 38.1736 375.838 38.609 373.795 39.4549C371.753 40.3009 369.897 41.541 368.333 43.1043C366.77 44.6676 365.53 46.5235 364.684 48.5661C363.838 50.6087 363.403 52.798 363.403 55.0088V429.621C363.4 431.832 363.834 434.022 364.68 436.065C365.525 438.108 366.765 439.964 368.329 441.526C369.893 443.089 371.75 444.328 373.793 445.172C375.837 446.016 378.027 446.448 380.238 446.445H532.319C533.013 446.446 533.706 446.404 534.394 446.318C538.466 445.81 542.212 443.833 544.93 440.759C547.648 437.685 549.15 433.724 549.154 429.621V153.85C493.841 147.441 447.752 107.975 432.477 54.9568Z" fill="#3F3D56"/>
<path d="M467.326 54.9575H434.303C449.503 106.993 494.8 145.708 549.153 152.088V120.291C530.99 117.514 513.873 110.018 499.513 98.5533C485.154 87.0884 474.055 72.0557 467.326 54.9575Z" fill="#3F3D56"/>
<path opacity="0.1" d="M418.477 440.653C418.896 440.237 428.838 430.168 437.266 406.278C444.997 384.36 452.799 346.138 446.058 288.519C433.285 179.362 498.781 109.796 499.445 109.106L497.506 107.244C497.338 107.419 480.498 125.121 465.516 156.198C445.683 197.407 438.008 243.416 443.388 288.831C456.138 397.801 416.978 438.351 416.581 438.749L418.477 440.653Z" fill="black"/>
<path opacity="0.1" d="M519.55 107.278C529.197 107.278 537.017 99.4581 537.017 89.8117C537.017 80.1654 529.197 72.3455 519.55 72.3455C509.904 72.3455 502.084 80.1654 502.084 89.8117C502.084 99.4581 509.904 107.278 519.55 107.278Z" fill="black"/>
<path opacity="0.1" d="M450.738 156.861C460.384 156.861 468.204 149.041 468.204 139.394C468.204 129.748 460.384 121.928 450.738 121.928C441.091 121.928 433.271 129.748 433.271 139.394C433.271 149.041 441.091 156.861 450.738 156.861Z" fill="black"/>
<path opacity="0.1" d="M477.091 207.552C486.737 207.552 494.557 199.732 494.557 190.086C494.557 180.44 486.737 172.62 477.091 172.62C467.444 172.62 459.625 180.44 459.625 190.086C459.625 199.732 467.444 207.552 477.091 207.552Z" fill="black"/>
<path opacity="0.1" d="M424.11 231.957C433.756 231.957 441.576 224.137 441.576 214.491C441.576 204.844 433.756 197.024 424.11 197.024C414.463 197.024 406.644 204.844 406.644 214.491C406.644 224.137 414.463 231.957 424.11 231.957Z" fill="black"/>
<path opacity="0.1" d="M468.151 300.799C477.798 300.799 485.618 292.979 485.618 283.333C485.618 273.686 477.798 265.866 468.151 265.866C458.505 265.866 450.685 273.686 450.685 283.333C450.685 292.979 458.505 300.799 468.151 300.799Z" fill="black"/>
<path opacity="0.1" d="M408.073 438.776C408.073 438.776 435.239 401.152 391.984 357.398L408.073 438.776Z" fill="black"/>
<path opacity="0.1" d="M429.123 443.113C429.123 443.113 447.689 400.583 507.365 415.557L429.123 443.113Z" fill="black"/>
<path d="M529.942 292.394H383.148V321.29H529.942V292.394Z" fill="#04536C"/>
<path d="M427.988 231.15C422.101 222.398 419.544 211.827 420.783 201.353C422.021 190.879 426.972 181.195 434.738 174.058C442.503 166.921 452.569 162.804 463.111 162.452C473.652 162.1 483.97 165.537 492.195 172.141C500.419 178.744 506.004 188.076 507.938 198.444C509.872 208.813 508.027 219.531 502.736 228.655C497.445 237.779 489.06 244.705 479.101 248.177C469.141 251.649 458.268 251.437 448.451 247.58C447.815 249.851 446.625 251.93 444.989 253.629C443.352 255.328 441.32 256.594 439.073 257.315C436.827 258.036 434.437 258.189 432.118 257.759C429.798 257.33 427.621 256.332 425.782 254.856C423.942 253.379 422.498 251.469 421.578 249.297C420.657 247.124 420.29 244.758 420.509 242.409C420.727 240.06 421.525 237.802 422.83 235.837C424.135 233.872 425.907 232.262 427.988 231.15Z" fill="#F2F2F2"/>
<path d="M473.931 190.756C472.881 190.15 468.902 195.012 464.51 202.088C460.119 195.012 456.14 190.15 455.09 190.756C453.924 191.43 456.794 198.607 461.563 207.073C456.794 215.538 453.924 222.716 455.09 223.389C456.14 223.995 460.119 219.133 464.51 212.058C468.902 219.133 472.881 223.995 473.931 223.389C475.097 222.716 472.227 215.538 467.458 207.073C472.227 198.607 475.097 191.43 473.931 190.756Z" fill="#04536C"/>
<path d="M262.605 265.646C262.605 265.646 257.904 285.794 261.934 285.794C265.963 285.794 274.023 276.392 274.023 276.392V271.019L262.605 265.646Z" fill="#A0616A"/>
<path d="M272.344 247.849L260.255 266.653H268.986L272.344 247.849Z" fill="#D0CDE1"/>
<path d="M281.073 411.718H264.955V425.15H281.073V411.718Z" fill="#A0616A"/>
<path d="M316.669 409.704L320.027 425.151L336.817 421.121L332.787 407.689L316.669 409.704Z" fill="#A0616A"/>
<path d="M266.301 270.683C266.301 270.683 260.928 273.37 260.257 285.458C259.585 297.547 262.272 329.112 262.272 329.112C262.272 329.112 259.585 343.216 262.272 355.976C264.958 368.737 259.585 415.077 262.943 415.077C266.301 415.077 283.763 417.092 284.434 415.077C285.106 413.062 285.777 382.84 285.777 382.84C285.777 382.84 291.15 367.394 285.777 357.991C285.777 357.991 297.866 368.065 297.866 370.752C297.866 373.438 310.627 415.077 316.671 415.749C322.715 416.42 339.505 415.077 336.147 409.033C332.789 402.988 324.73 375.453 324.73 375.453C324.73 375.453 318.686 355.305 307.94 346.574L313.313 303.592C313.313 303.592 324.73 274.713 318.014 270.683C311.298 266.654 266.301 270.683 266.301 270.683Z" fill="#2F2E41"/>
<path d="M286.447 161.213C296.091 161.213 303.909 153.395 303.909 143.751C303.909 134.108 296.091 126.29 286.447 126.29C276.803 126.29 268.985 134.108 268.985 143.751C268.985 153.395 276.803 161.213 286.447 161.213Z" fill="#A0616A"/>
<path d="M277.716 154.496C277.716 154.496 284.432 176.659 282.417 179.345C280.402 182.032 303.908 164.57 303.908 164.57C303.908 164.57 295.177 158.526 298.535 149.795L277.716 154.496Z" fill="#A0616A"/>
<path d="M305.924 162.556C305.924 162.556 297.865 165.243 293.835 169.944C289.806 174.645 280.403 175.317 280.403 175.317C280.403 175.317 272.092 179.998 268.986 188.077C265.677 196.688 267.6 208.811 268.986 211.583C271.673 216.956 271.673 230.388 271.673 230.388L268.315 261.281C268.315 261.281 256.226 272.699 265.628 274.042C275.031 275.385 291.821 273.37 301.895 274.042C311.969 274.713 323.386 276.057 320.028 269.341C316.67 262.625 312.64 257.923 316.67 244.492C319.823 233.981 319.686 194.681 319.478 178.086C319.449 175.807 318.838 173.573 317.702 171.597C316.566 169.62 314.944 167.968 312.989 166.795L305.924 162.556Z" fill="#D0CDE1"/>
<path d="M279.735 265.31C279.735 265.31 276.679 272.037 276.377 276.055C274.026 307.285 291.152 276.055 291.152 276.055V270.683L279.735 265.31Z" fill="#A0616A"/>
<path d="M326.748 419.778C326.748 419.778 316.674 412.39 316.674 416.42C316.674 420.449 305.257 436.568 305.257 436.568C305.257 436.568 286.452 450 301.899 450C317.345 450 324.061 447.313 324.061 447.313L340.18 436.568C340.18 436.568 344.209 431.867 342.866 426.494C341.523 421.121 336.822 413.733 336.822 413.733C336.822 413.733 331.449 421.121 326.748 419.778Z" fill="#2F2E41"/>
<path d="M267.648 421.793C267.648 421.793 266.305 415.077 261.603 418.435C256.902 421.793 244.142 431.867 244.142 431.867C244.142 431.867 220.636 437.24 235.411 443.956C250.186 450.672 283.766 441.269 283.766 441.269C283.766 441.269 285.109 419.778 283.766 420.45C282.423 421.122 268.319 423.136 267.648 421.793Z" fill="#2F2E41"/>
<path opacity="0.1" d="M296.189 183.712L298.204 224.679L278.681 264.22L275.37 262.96L295.518 226.022L296.189 183.712Z" fill="black"/>
<path d="M311.97 171.286L317.007 170.279C317.007 170.279 332.118 181.36 327.417 203.523C322.716 225.686 301.896 259.266 301.896 259.266C301.896 259.266 297.195 265.31 295.852 266.654C294.509 267.997 291.822 266.654 293.165 268.668C294.509 270.683 291.151 272.026 291.151 272.026C291.151 272.026 276.375 272.026 277.719 266.654C279.062 261.281 301.896 223 301.896 223L298.538 187.405C298.538 187.405 295.852 169.943 311.97 171.286Z" fill="#D0CDE1"/>
<path opacity="0.1" d="M318.351 233.41V228.708L295.516 266.318L318.351 233.41Z" fill="black"/>
<path d="M274.062 127.575L271.175 126.419C271.175 126.419 277.211 119.774 285.609 120.352L283.247 117.752C283.247 117.752 289.021 115.44 294.269 121.507C297.028 124.697 300.22 128.446 302.211 132.669H305.302L304.012 135.51L308.528 138.351L303.893 137.841C304.332 140.294 304.181 142.816 303.454 145.199L303.578 147.444C303.578 147.444 298.206 139.131 298.206 137.976V140.865C298.206 140.865 295.319 138.265 295.319 136.531L293.744 138.554L292.957 135.376L283.247 138.554L284.822 135.953L278.786 136.82L281.148 133.642C281.148 133.642 274.325 137.398 274.062 140.576C273.8 143.754 270.388 147.799 270.388 147.799L268.814 144.91C268.814 144.91 266.452 131.909 274.062 127.575Z" fill="#2F2E41"/>
</g>
<defs>
<clipPath id="clip0_835_409">
<rect width="369.281" height="450" fill="white" transform="translate(179.875)"/>
</clipPath>
</defs>
</svg>
